<svg xmlns="http://www.w3.org/2000/svg" width="24" height="24" fill="none" viewBox="0 0 24 24">
  <g fill-rule="evenodd" clip-rule="evenodd">
    <g fill="#338499">
      <path d="M20.5 18a2.5 2.5 0 1 1-5 0 2.5 2.5 0 0 1 5 0m-1 0a1.5 1.5 0 1 0-3 0 1.5 1.5 0 0 0 3 0"/>
      <path d="m19.366 12.282.2.923q.247.08.483.185l.234.111.794-.51a.36.36 0 0 1 .392.003l.055.045 1.437 1.437a.36.36 0 0 1 .08.384l-.032.063-.51.794q.117.231.21.473l.086.243.923.2a.36.36 0 0 1 .277.289l.005.062v2.032c0 .148-.09.278-.223.332l-.06.018-.922.2a5 5 0 0 1-.185.483l-.111.234.51.794a.36.36 0 0 1-.003.392l-.045.055-1.437 1.437a.36.36 0 0 1-.384.08l-.063-.032-.794-.51a5 5 0 0 1-.473.21l-.243.086-.2.923a.36.36 0 0 1-.289.277l-.062.005h-2.032a.36.36 0 0 1-.332-.223l-.018-.06-.2-.922a5 5 0 0 1-.483-.185l-.234-.111-.794.51a.36.36 0 0 1-.392-.003l-.055-.045-1.437-1.437a.36.36 0 0 1-.08-.384l.032-.063.51-.794a5 5 0 0 1-.21-.473l-.086-.243-.923-.2a.36.36 0 0 1-.277-.289L12 19.016v-2.032c0-.148.09-.278.223-.332l.06-.018.922-.2a5 5 0 0 1 .185-.483l.111-.234-.51-.794a.36.36 0 0 1 .003-.392l.045-.055 1.437-1.437a.36.36 0 0 1 .384-.08l.063.032.794.51q.231-.117.473-.21l.243-.086.2-.923a.36.36 0 0 1 .289-.277l.062-.005h2.032c.148 0 .278.09.332.223zm-.11 1.873-.545-.178L18.5 13h-.998l-.209.96-.755.269a4 4 0 0 0-.366.164l-.512.26-.842-.541-.705.705.532.828-.345.724a4 4 0 0 0-.144.375l-.178.545L13 17.5v.998l.96.209.269.755q.072.187.164.366l.26.512-.541.842.705.705.828-.532.724.345q.184.081.375.144l.545.178.212.977h.998l.209-.96.755-.269q.187-.072.366-.164l.512-.26.842.541.705-.705-.532-.828.345-.724q.081-.184.144-.375l.178-.545.977-.21v-.998l-.96-.209-.269-.755a4 4 0 0 0-.164-.366l-.26-.512.541-.842-.705-.705-.828.532-.724-.345a4 4 0 0 0-.375-.144Z"/>
    </g>
    <g fill="#404040">
      <path d="M13.688 2H1.312A.31.31 0 0 0 1 2.313V21h4v-5h5v5h1.786v1H0V2.312C0 1.589.588 1 1.313 1h12.374C14.412 1 15 1.588 15 2.313V9h5.688C21.412 9 22 9.588 22 10.313V12h-1v-1.688a.31.31 0 0 0-.313-.312H14V2.312A.31.31 0 0 0 13.687 2ZM9 21v-4H6v4z"/>
      <path d="M3 5h4v4H3zm3 1H4v2h2zm-3 4h4v4H3zm1 1v2h2v-2zm4-6h4v4H8zm3 1H9v2h2zm-3 4h4v4H8zm1 1v2h2v-2z"/>
    </g>
  </g>
</svg>
