<svg xmlns="http://www.w3.org/2000/svg" width="16" height="16" fill="none" viewBox="0 0 16 16">
  <path fill="#00873D" fill-rule="evenodd" d="M12.5 8a2.5 2.5 0 1 0 0 5 2.5 2.5 0 0 0 0-5M9 10.5a3.5 3.5 0 1 1 7 0 3.5 3.5 0 0 1-7 0m3.5-1.832a.5.5 0 0 1 .5.5V10h.833a.5.5 0 1 1 0 1H13v.835a.5.5 0 1 1-1 0V11h-.833a.5.5 0 0 1 0-1H12v-.832a.5.5 0 0 1 .5-.5" clip-rule="evenodd"/>
  <g fill="#404040">
    <path d="M1.5 2h11a.5.5 0 0 1 .5.5v3.527q.522.06 1 .23V2.5A1.5 1.5 0 0 0 12.5 1h-11A1.5 1.5 0 0 0 0 2.5v9A1.5 1.5 0 0 0 1.5 13H7v2H5v1h5v-1H8v-2h.758a4.5 4.5 0 0 1-.502-1H1.5a.5.5 0 0 1-.5-.5v-9a.5.5 0 0 1 .5-.5"/>
    <path d="M4 4.5a.5.5 0 0 0-1 0V10h1zM6.5 7a.5.5 0 0 0-.5.5V10h1V7.5a.5.5 0 0 0-.5-.5M10 5.5a.5.5 0 0 0-1 0v2.171c.285-.352.622-.66 1-.913z"/>
  </g>
</svg>
