<svg xmlns="http://www.w3.org/2000/svg" xmlns:xlink="http://www.w3.org/1999/xlink" width="40" height="40" viewBox="0 0 40 40">
  <defs>
    <g id="prefix__app_40px-a" fill-rule="evenodd" clip-rule="evenodd">
      <path fill="#404040" d="M6 5c-.533 0-1-.467-1-1s.467-1 1-1 1 .467 1 1-.467 1-1 1m4-1c0 .533.467 1 1 1s1-.467 1-1-.467-1-1-1-1 .467-1 1m6 1c-.533 0-1-.467-1-1s.467-1 1-1 1 .467 1 1-.467 1-1 1m11 25v-1h8v1zm8 3v-1H25v1zm-5-14a1 1 0 0 1 1 1v6h-3v-6a1 1 0 0 1 1-1zm-1 1h1v5h-1zm-6.767 3.73q0-.406-.035-.803h-8.493v-8.295a9.116 9.116 0 1 0-.588 18.214 9.116 9.116 0 0 0 9.116-9.116m-9.528.197h8.525a8.116 8.116 0 1 1-8.525-8.303zM40 37a3 3 0 0 1-3 3H3a3 3 0 0 1-3-3V3a3 3 0 0 1 3-3h34a3 3 0 0 1 3 3zM3 1h34a2 2 0 0 1 2 2v4H1V3a2 2 0 0 1 2-2M1 8v29a2 2 0 0 0 2 2h34a2 2 0 0 0 2-2V8z"/>
      <path fill="#009844" d="M25.554 19.388a9 9 0 0 1 .01 1h-9.32v-9.22a8.825 8.825 0 0 1 9.31 8.22m-8.31-7.219a7.826 7.826 0 0 1 7.307 7.219h-7.307zM35 16a1 1 0 0 0-1-1h-1a1 1 0 0 0-1 1v10h3zm-1 0h-1v9h1z"/>
    </g>
  </defs>
  <use xlink:href="#prefix__app_40px-a"/>
</svg>
