<?xml version="1.0" encoding="utf-8"?>
<!-- Generator: Adobe Illustrator 28.2.0, SVG Export Plug-In . SVG Version: 6.00 Build 0)  -->
<svg version="1.1" id="Layer_1" xmlns="http://www.w3.org/2000/svg" xmlns:xlink="http://www.w3.org/1999/xlink" x="0px" y="0px"
	 viewBox="0 0 48 48" style="enable-background:new 0 0 48 48;" xml:space="preserve">
<style type="text/css">
	.st0{fill:none;stroke:#009845;stroke-width:1.5;stroke-linecap:round;stroke-linejoin:round;}
	.st1{fill:none;stroke:#54565A;stroke-width:1.5;stroke-linecap:round;stroke-linejoin:round;}
</style>
<path class="st0" d="M20.9,27.6c-0.5,0-1-0.2-1.4-0.6l-4.2-4.1c-0.8-0.8-0.8-2,0-2.8s2-0.8,2.8,0l2.8,2.8l9.6-9.7
	c0.8-0.8,2-0.8,2.8,0s0.8,2,0,2.8l-11,11C22,27.4,21.4,27.6,20.9,27.6L20.9,27.6z"/>
<g>
	<g>
		<line class="st1" x1="19.1" y1="43" x2="19.9" y2="38.1"/>
		<line class="st1" x1="31.4" y1="43" x2="16.6" y2="43"/>
		<line class="st1" x1="28.1" y1="38.1" x2="28.9" y2="43"/>
		<line class="st1" x1="36.2" y1="33.2" x2="44.5" y2="33.2"/>
		<line class="st1" x1="3.5" y1="33.2" x2="11.9" y2="33.2"/>
		<path class="st1" d="M39.8,8.6H43c0.8,0,1.5,0.7,1.5,1.5v26.4c0,0.8-0.7,1.5-1.5,1.5H5.1c-0.8,0-1.5-0.7-1.5-1.5V10.1
			c0-0.8,0.7-1.5,1.5-1.5h5.3"/>
	</g>
	<g>
		<path class="st1" d="M27.8,4.7c0.2,0,0.3,0.1,0.5,0.1c2.4,0.7,4.6,1.9,6.3,3.5"/>
		<path class="st1" d="M8.7,21.1c-0.2-1.8,0-3.7,0.5-5.6c2-7.2,8.8-11.7,16-11.2"/>
		<path class="st1" d="M36.7,28.8C33,34,26.4,36.5,19.9,34.7c-5.4-1.5-9.4-5.8-10.7-10.9"/>
		<path class="st1" d="M23.4,6.5l1.9-2.2l-2.3-2"/>
		<polyline class="st1" points="11.8,24.7 9,23.6 7.9,26.4 		"/>
		<polyline class="st1" points="36.7,24 38,26.6 40.7,25.2 		"/>
	</g>
</g>
<g>
	<g>
		<line class="st1" x1="19.1" y1="43" x2="19.9" y2="38.1"/>
		<line class="st1" x1="31.4" y1="43" x2="16.6" y2="43"/>
		<line class="st1" x1="28.1" y1="38.1" x2="28.9" y2="43"/>
		<line class="st1" x1="36.2" y1="33.2" x2="44.5" y2="33.2"/>
		<line class="st1" x1="3.5" y1="33.2" x2="11.9" y2="33.2"/>
		<path class="st1" d="M37.7,8.6H43c0.8,0,1.5,0.7,1.5,1.5v26.4c0,0.8-0.7,1.5-1.5,1.5H5.1c-0.8,0-1.5-0.7-1.5-1.5V10.1
			c0-0.8,0.7-1.5,1.5-1.5h5.3"/>
	</g>
	<path class="st1" d="M27.8,4.7c1.8,0.4,3.5,1.2,5.1,2.3c0.4,0.3,0.8,0.6,1.2,0.9c2.3,1.9,3.9,4.5,4.8,7.3c0.8,2.8,0.9,5.7,0.1,8.5
		c-0.2,0.8-0.5,1.7-0.9,2.4"/>
</g>
</svg>
