<svg xmlns="http://www.w3.org/2000/svg" width="16" height="16" fill="none" viewBox="0 0 16 16">
  <path stroke="#404040" d="M11 5.5h.207l.147.146L13.5 7.793V5.5H15a.5.5 0 0 0 .5-.5V1a.5.5 0 0 0-.5-.5h-5a.5.5 0 0 0-.5.5v4a.5.5 0 0 0 .5.5z"/>
  <g stroke="#404040">
    <path d="M3.5 8.5v-.667a1 1 0 0 0-.2-.6l-.808-1.077A2.46 2.46 0 0 1 2 4.68c0-.977.69-1.818 1.648-2.01l.216-.043c.42-.084.852-.084 1.272 0l.217.044A2.05 2.05 0 0 1 7 4.68a2.46 2.46 0 0 1-.492 1.475L5.7 7.233a1 1 0 0 0-.2.6V8.5A.5.5 0 0 1 5 9H4a.5.5 0 0 1-.5-.5Z"/>
    <path stroke-linecap="round" d="M3.5 10.5h2"/>
  </g>
  <path fill="#870063" fill-rule="evenodd" d="M3 13v-1H1V7a1 1 0 0 0-1 1v4a1 1 0 0 0 1 1h1v2.398a.5.5 0 0 0 .83.376L6 13h3a1 1 0 0 0 1-1V8a1 1 0 0 0-1-1H8v1h1v4H5.624l-.282.247L3 14.297z" clip-rule="evenodd"/>
</svg>
