<svg xmlns="http://www.w3.org/2000/svg" xmlns:xlink="http://www.w3.org/1999/xlink" width="16" height="16" viewBox="0 0 16 16">
  <defs>
    <g id="prefix__experiment_16-a">
      <path fill="#009845" d="M3.865 9.067a3.64 3.64 0 0 1 4.166-.269l.175.113a2.64 2.64 0 0 0 2.74.155l.171-.099.615-.39.536.845-.616.39a3.64 3.64 0 0 1-3.82.047l-.193-.124a2.64 2.64 0 0 0-2.994-.002l-.155.115-.678.542-.624-.78z"/>
      <path fill="#404040" d="M12 0v1h-1.5v4.372l5.03 9.146a1 1 0 0 1-.764 1.476l-.112.006H1.346a1 1 0 0 1-.925-1.381l.048-.101L5.5 5.37V1H4V0zM9.5 1h-3v4.628L1.346 15h13.308L9.5 5.628z"/>
    </g>
  </defs>
  <use xlink:href="#prefix__experiment_16-a"/>
</svg>
