<svg xmlns="http://www.w3.org/2000/svg" viewBox="0 0 16 16" height="48" fill="currentColor" aria-hidden="true" role="img"><path d="M4 0a1 1 0 0 1 1 1v1h6V1a1 1 0 0 1 1-1h3a1 1 0 0 1 1 1v3a1 1 0 0 1-1 1h-1v2.5a1 1 0 0 1-1 1H3.2a.2.2 0 0 0-.2.2V11h1a1 1 0 0 1 1 1v1h8.92l-1.065-.917a.535.535 0 0 1-.103-.692.406.406 0 0 1 .603-.095l2.184 1.82a.5.5 0 0 1 0 .768l-2.176 1.813a.41.41 0 0 1-.61-.1.55.55 0 0 1 .111-.708L13.91 14H5v1a1 1 0 0 1-1 1H1a1 1 0 0 1-1-1v-3a1 1 0 0 1 1-1h1V8.5a1 1 0 0 1 1-1h9.8a.2.2 0 0 0 .2-.2V5h-1a1 1 0 0 1-1-1V3H5v1a1 1 0 0 1-1 1H1a1 1 0 0 1-1-1V1a1 1 0 0 1 1-1zm-.2 12H1.2a.2.2 0 0 0-.2.2v2.6c0 .11.09.2.2.2h2.6a.2.2 0 0 0 .2-.2v-2.6a.2.2 0 0 0-.2-.2m0-11H1.2a.2.2 0 0 0-.2.2v2.6c0 .11.09.2.2.2h2.6a.2.2 0 0 0 .2-.2V1.2a.2.2 0 0 0-.2-.2m11 0h-2.6a.2.2 0 0 0-.2.2v2.6c0 .11.09.2.2.2h2.6a.2.2 0 0 0 .2-.2V1.2a.2.2 0 0 0-.2-.2"></path></svg>