<svg xmlns="http://www.w3.org/2000/svg" xmlns:xlink="http://www.w3.org/1999/xlink" width="16" height="16" viewBox="0 0 16 16">
  <defs>
    <g id="prefix__proton_16px-a">
      <path fill="#009845" d="M7.993 9.317a1.323 1.323 0 1 0 0-2.647 1.323 1.323 0 0 0 0 2.647"/>
      <path fill="#404040" d="M14.033 0c.49 0 .895.102 1.223.323l.136.102.09.084.115.127c.303.375.436.903.396 1.56-.043.709-.285 1.557-.712 2.496-.477 1.047-1.167 2.174-2.023 3.31.51.678.964 1.356 1.35 2.018C15.51 11.573 16 12.976 16 14.033c0 .56-.134 1.012-.404 1.337l-.108.115-.12.109c-.38.306-.907.439-1.564.4-.709-.044-1.558-.287-2.495-.713-1.047-.476-2.174-1.166-3.309-2.021a21 21 0 0 1-2.015 1.347C4.432 15.511 3.03 16 1.972 16c-.548 0-1.003-.14-1.327-.4l-.115-.103-.122-.133c-.306-.375-.44-.903-.401-1.56.042-.709.285-1.557.713-2.495.476-1.046 1.166-2.171 2.022-3.306a21 21 0 0 1-1.349-2.018C.489 4.432 0 3.03 0 1.972 0 1.356.176.856.515.518.78.248 1.14.085 1.582.025l.195-.019L1.981 0l.215.007c.709.042 1.557.285 2.496.713C5.738 1.196 6.865 1.887 8 2.745c.68-.513 1.358-.967 2.02-1.352C11.573.489 12.976 0 14.033 0M3.383 8.816l-.033.045c-.725.99-1.31 1.962-1.72 2.862-.38.835-.591 1.569-.625 2.14-.024.408.039.68.152.838l.05.061.082.07c.144.105.368.168.683.168.85 0 2.096-.434 3.51-1.257a19 19 0 0 0 1.704-1.124 28 28 0 0 1-3.802-3.803Zm9.234 0L12.464 9a28 28 0 0 1-1.661 1.812 28 28 0 0 1-1.989 1.806c1.005.74 1.994 1.337 2.909 1.752.834.38 1.569.59 2.142.625.407.025.681-.038.85-.16l.064-.055.057-.063c.103-.133.164-.352.164-.684 0-.85-.434-2.096-1.257-3.51a19 19 0 0 0-1.126-1.706ZM8 4.014l-.172.14A27 27 0 0 0 5.91 5.895a27 27 0 0 0-1.899 2.107c.568.706 1.201 1.41 1.884 2.094A27 27 0 0 0 8 11.99a26 26 0 0 0 2.096-1.886 27 27 0 0 0 1.893-2.102 27 27 0 0 0-1.884-2.093A27 27 0 0 0 8 4.013ZM14.033 1c-.85 0-2.096.434-3.51 1.257a19 19 0 0 0-1.708 1.128 28.4 28.4 0 0 1 3.802 3.804c.74-1.006 1.337-1.996 1.754-2.912.38-.834.59-1.569.624-2.142.025-.407-.038-.681-.158-.847l-.054-.064-.05-.048c-.132-.11-.357-.176-.7-.176m-11.897.005c-.465-.028-.755.059-.913.218-.137.137-.223.382-.223.75 0 .85.434 2.095 1.257 3.51.325.558.703 1.13 1.126 1.706a28 28 0 0 1 3.803-3.803c-1.006-.742-1.995-1.34-2.91-1.756-.834-.38-1.568-.591-2.14-.625"/>
    </g>
  </defs>
  <use xlink:href="#prefix__proton_16px-a"/>
</svg>
