<svg xmlns="http://www.w3.org/2000/svg" xmlns:xlink="http://www.w3.org/1999/xlink" width="16" height="16" fill="none" viewBox="0 0 16 16">
  <defs>
    <g id="prefix__automation_16px-a" fill-rule="evenodd" clip-rule="evenodd">
      <path fill="#009845" d="M4.8 1H1.2a.2.2 0 0 0-.2.2v3.6c0 .11.09.2.2.2h3.6a.2.2 0 0 0 .2-.2V1.2a.2.2 0 0 0-.2-.2M1.2 0A1.2 1.2 0 0 0 0 1.2v3.6A1.2 1.2 0 0 0 1.2 6h3.6A1.2 1.2 0 0 0 6 4.8V1.2A1.2 1.2 0 0 0 4.8 0z"/>
      <path fill="#404040" d="M13.4 3.5H6v-1h7.4a1.7 1.7 0 0 1 1.7 1.7v2.6a1.7 1.7 0 0 1-1.7 1.7H4.2a.7.7 0 0 0-.7.7v2.6a.7.7 0 0 0 .7.7h4.393l-1.546-1.547.707-.707L10 12.493V11.2a1.2 1.2 0 0 1 1.2-1.2h3.6a1.2 1.2 0 0 1 1.2 1.2v3.6a1.2 1.2 0 0 1-1.2 1.2h-3.6a1.2 1.2 0 0 1-1.2-1.2v-1.293l-2.246 2.246-.707-.707L8.593 13.5H4.2a1.7 1.7 0 0 1-1.7-1.7V9.2a1.7 1.7 0 0 1 1.7-1.7h9.2a.7.7 0 0 0 .7-.7V4.2a.7.7 0 0 0-.7-.7m1.4 7.5h-3.6a.2.2 0 0 0-.2.2v3.6c0 .11.09.2.2.2h3.6a.2.2 0 0 0 .2-.2v-3.6a.2.2 0 0 0-.2-.2"/>
    </g>
  </defs>
  <use xlink:href="#prefix__automation_16px-a"/>
</svg>
