<svg xmlns="http://www.w3.org/2000/svg" viewBox="0 0 16 16" height="16" fill="currentColor" aria-hidden="true" role="img" alt=""><path d="M15.158 2c.42 0 .674.168.758.421 0 .084.084.253.084.421v10.105c0 .169-.084.337-.084.421-.084.253-.337.421-.758.421H.842c-.505 0-.674-.168-.758-.42C0 13.283 0 13.115 0 12.946V2.842c0-.168.084-.337.084-.42C.253 2.167.421 2 .842 2h14.316M3.368 12.947V2.842H1.684c-.842 0-.842 0-.842.842v8.421c0 .842 0 .842.842.842zm.927-.842c0 .253-.084.842.758.842h1.684V2.842H5.053c-.842 0-.758 0-.758.842v9.263zm10.863-8.42c0-.843.084-.843-.842-.843H8.42c-.842 0-.842 0-.842.842v8.421c0 .842 0 .842.842.842h5.895c.842 0 .842 0 .842-.842zm-5.895 3.62h4.21v1.263h-4.21zm0-2.779h4.21V5.79h-4.21zm0 5.474h4.21v1.263h-4.21z"></path></svg>