<svg xmlns="http://www.w3.org/2000/svg" viewBox="0 0 16 16" height="16px" fill="currentColor" aria-hidden="true" role="img" style="font-size: 14px;"><path d="M4.5 3.357A3.357 3.357 0 0 1 7.857 0h.286A3.357 3.357 0 0 1 11.5 3.357c0 .85-.275 1.677-.786 2.357l-.614.82a.5.5 0 0 0-.1.3V9.5A1.5 1.5 0 0 1 8.5 11h-1A1.5 1.5 0 0 1 6 9.5V6.833a.5.5 0 0 0-.1-.3l-.614-.819A3.93 3.93 0 0 1 4.5 3.357M7.857 1A2.357 2.357 0 0 0 5.5 3.357c0 .634.206 1.25.586 1.757l.614.82c.195.259.3.575.3.9V7.5h2v-.667c0-.324.105-.64.3-.9l.614-.819a2.93 2.93 0 0 0 .586-1.757A2.357 2.357 0 0 0 8.143 1zM9 8.5H7v1a.5.5 0 0 0 .5.5h1a.5.5 0 0 0 .5-.5zM3 2H2a2 2 0 0 0-2 2v8a2 2 0 0 0 2 2h2v2l4-2h6a2 2 0 0 0 2-2V4a2 2 0 0 0-2-2h-1v1h1a1 1 0 0 1 1 1v8a1 1 0 0 1-1 1H7.764L5 14.382V13H2a1 1 0 0 1-1-1V4a1 1 0 0 1 1-1h1z"></path></svg>