<svg xmlns="http://www.w3.org/2000/svg" viewBox="0 0 16 16" height="16px" fill="currentColor" aria-hidden="true" role="img" style="font-size: 14px;"><path d="M4 8c2.2 0 4-1.8 4-4S6.2 0 4 0 0 1.8 0 4s1.8 4 4 4m0-1C2.352 7 1 5.648 1 4s1.352-3 3-3 3 1.352 3 3-1.352 3-3 3m8.5 5c1.9 0 3.5-1.6 3.5-3.5S14.4 5 12.5 5 9 6.6 9 8.5s1.6 3.5 3.5 3.5m0-1C11.152 11 10 9.848 10 8.5S11.152 6 12.5 6 15 7.152 15 8.5 13.848 11 12.5 11M8 13.5C8 14.9 6.9 16 5.5 16S3 14.9 3 13.5 4.1 11 5.5 11 8 12.1 8 13.5m-1 0c0-.848-.652-1.5-1.5-1.5S4 12.652 4 13.5 4.652 15 5.5 15 7 14.348 7 13.5"></path></svg>