<svg xmlns="http://www.w3.org/2000/svg" viewBox="0 0 16 16" height="16px" fill="currentColor" aria-hidden="true" role="img" style="font-size: 14px;"><path d="M8 16A8 8 0 1 0 8 0a8 8 0 0 0 0 16m0-1A7 7 0 0 1 1.887 4.587l1.5.3-.372 1.492A.5.5 0 0 0 3.1 6.8l1.5 2a.5.5 0 0 0 .143.129l2.5 1.5a.5.5 0 0 0 .136.056l1.476.37-.33.987a.5.5 0 0 0 0 .316l.455 1.362-.364 1.453A7 7 0 0 1 8 15m1.985-1.379a.5.5 0 0 0-.01-.28L9.526 12l.333-1h.933l1.12 1.12-.875 2.188q-.64.31-1.346.486l.293-1.173Zm2.506-.25.473-1.185a.5.5 0 0 0-.11-.54l-1.5-1.5A.5.5 0 0 0 11 10H9.74L8.22 8.1l1.122.374a.5.5 0 0 0 .643-.353l.466-1.865 1.903-1.902a.5.5 0 0 0 0-.708L9.996 1.29a7.003 7.003 0 0 1 2.494 12.08ZM7.693 9.532l-2.352-1.41L4.043 6.39l.442-1.769a.5.5 0 0 0-.387-.611l-1.612-.323a6.99 6.99 0 0 1 5.813-2.68L11.293 4l-.793.793-1.146-1.147-.708.708L9.793 5.5l-.147.146a.5.5 0 0 0-.131.233l-.37 1.476-.987-.33a.5.5 0 0 0-.512.121l-.5.5a.5.5 0 0 0-.036.666l1.074 1.344z"></path></svg>