<svg xmlns="http://www.w3.org/2000/svg" viewBox="0 0 16 16" height="16px" fill="currentColor" aria-hidden="true" role="img" style="font-size: 14px;"><path d="M1 0a1 1 0 0 0-1 1v14a1 1 0 0 0 1 1h7v-1H1.5a.5.5 0 0 1-.5-.5v-13a.5.5 0 0 1 .5-.5h10a.5.5 0 0 1 .5.5V5h1V1a1 1 0 0 0-1-1zm6.527 6a1 1 0 0 0-.788 1.617l2.848 3.636v3.904a.8.8 0 0 0 .162.488.73.73 0 0 0 1.07.114l1.91-1.413.026-.025a.8.8 0 0 0 .235-.572v-2.62l2.752-3.512A1 1 0 0 0 14.954 6zm0 1h7.427l-2.964 3.785v2.864l-1.403 1.038v-3.779z"></path></svg>