<svg xmlns="http://www.w3.org/2000/svg" viewBox="0 0 16 16" height="16px" fill="currentColor" aria-hidden="true" role="img" style="font-size: 14px;"><path d="M16 3a3.007 3.007 0 0 1-2.775 2.992 2.99 2.99 0 0 1 0 4.016A3.007 3.007 0 0 1 16 13c0 1.652-1.348 3-3 3H5c-1.652 0-3-1.348-3-3 0-.771.294-1.476.775-2.008A3.007 3.007 0 0 1 0 8a3.007 3.007 0 0 1 2.775-2.992A3 3 0 0 1 2 3c0-1.652 1.348-3 3-3h8c1.652 0 3 1.348 3 3m-3-2H5c-1.1 0-2 .9-2 2s.9 2 2 2h8c1.1 0 2-.9 2-2s-.9-2-2-2M6 4c.6 0 1-.4 1-1s-.4-1-1-1c-.5 0-1 .4-1 1s.4 1 1 1m-3 6h8c1.1 0 2-.9 2-2s-.9-2-2-2H3c-1.1 0-2 .9-2 2s.9 2 2 2m7-1c-.5 0-1-.4-1-1s.4-1 1-1 1 .4 1 1-.4 1-1 1m-1 3c-.6 0-1 .4-1 1s.4 1 1 1 1-.4 1-1-.4-1-1-1m-4 3h8c1.1 0 2-.9 2-2s-.9-2-2-2H5c-1.1 0-2 .9-2 2s.9 2 2 2m8-12c0 .6-.4 1-1 1s-1-.4-1-1 .5-1 1-1c.6 0 1 .4 1 1M3 8c0-.6.4-1 1-1s1 .4 1 1-.4 1-1 1c-.5 0-1-.4-1-1"></path></svg>