<svg xmlns="http://www.w3.org/2000/svg" viewBox="0 0 16 16" height="16px" fill="currentColor" aria-hidden="true" role="img" style="font-size: 14px;"><path d="M16.231-.354 8.588 7.29l-2.59-2.64a.5.5 0 0 0-.667-.04l-6.293 5 .622.783 5.94-4.72L8.228 8.35a.5.5 0 0 0 .71.004l8-8zM0 15v-3.711l1-.778V15h2V8.955l1-.777V15a1 1 0 0 1-1 1H1a1 1 0 0 1-1-1m6 0V7.507l1 1.02V15h2V9.706l1-1V15a1 1 0 0 1-1 1H7a1 1 0 0 1-1-1m6 0V6.706l1-1V15h2V3.706l.966-.966Q16 2.865 16 3v12a1 1 0 0 1-1 1h-2a1 1 0 0 1-1-1"></path></svg>