<svg xmlns="http://www.w3.org/2000/svg" viewBox="0 0 16 16" height="16px" fill="currentColor" aria-hidden="true" role="img" style="font-size: 14px;"><path d="M0 0v7h1V0zm5.773 9.213 3.797 2.19a1.05 1.05 0 0 0 1.427-.373l4.337-7.289a1.05 1.05 0 0 0-.36-1.436l-1.88-1.135a1.05 1.05 0 0 0-1.444.36L8.942 6.065l-3.82-2.203a1.05 1.05 0 0 0-1.433.383L0 10.61V16h1.841zM4.554 4.746a.05.05 0 0 1 .068-.018l4.674 2.695 3.213-5.38a.05.05 0 0 1 .068-.017l1.88 1.135a.05.05 0 0 1 .018.069l-4.337 7.29a.05.05 0 0 1-.068.017L5.408 7.848 1.265 15H1v-4.12zM16 16v-1H4v1z"></path></svg>