<svg xmlns="http://www.w3.org/2000/svg" viewBox="0 0 16 16" height="16px" fill="currentColor" aria-hidden="true" role="img" style="font-size: 14px;"><path d="M15 1a.5.5 0 0 0-1 0v4a.5.5 0 0 0 1 0zM0 2a1 1 0 0 1 1-1h10a1 1 0 0 1 1 1v2a1 1 0 0 1-1 1H1a1 1 0 0 1-1-1zm1 0v2h10V2zm3 4a.5.5 0 0 0-1 0H1a1 1 0 0 0-1 1v2a1 1 0 0 0 1 1h2a.5.5 0 0 0 1 0h5a1 1 0 0 0 1-1V7a1 1 0 0 0-1-1zm0 1h5v2H4zM3 9H1V7h2zm8.5 1.5a.5.5 0 0 1 .5.5h2a1 1 0 0 1 1 1v2a1 1 0 0 1-1 1h-2a.5.5 0 0 1-1 0H1a1 1 0 0 1-1-1v-2a1 1 0 0 1 1-1h10a.5.5 0 0 1 .5-.5M14 12h-2v2h2zM1 14h10v-2H1z"></path></svg>