<svg xmlns="http://www.w3.org/2000/svg" viewBox="0 0 16 16" height="16" fill="currentColor" aria-hidden="true" role="img" alt=""><path d="m6.646 6.146.708.708-1.75 1.75 1.791 1.791 1.751-1.749.708.708-1.75 1.75.58.58a1 1 0 0 1-.106 1.508L6.194 14.98a1 1 0 0 1-1.307-.093l-1.534-1.534-2.5 2.5-.707-.707 2.5-2.5-1.533-1.533a1 1 0 0 1-.093-1.307l1.788-2.384a1 1 0 0 1 1.507-.107l.58.58zM3.608 8.022 1.82 10.406l3.774 3.774 2.384-1.788zM15.146.146l.707.708-2.5 2.5 1.534 1.533a1 1 0 0 1 .093 1.307l-1.788 2.384a1 1 0 0 1-1.507.107l-4.37-4.37a1 1 0 0 1 .107-1.507L9.806 1.02a1 1 0 0 1 1.307.093l1.533 1.533zm-4.74 1.674L8.022 3.608l4.37 4.37 1.788-2.384z"></path></svg>