<svg xmlns="http://www.w3.org/2000/svg" viewBox="0 0 16 16" height="16" fill="currentColor" aria-hidden="true" role="img" alt=""><path d="m8.317.113.851.697a7.5 7.5 0 0 0 4.07 1.664l.307.028A.5.5 0 0 1 14 3v5.157a7.5 7.5 0 0 1-3.473 6.328l-2.259 1.437a.5.5 0 0 1-.536 0l-2.259-1.437A7.5 7.5 0 0 1 2 8.157V3a.5.5 0 0 1 .455-.498l.307-.028A7.5 7.5 0 0 0 6.832.81l.851-.697a.5.5 0 0 1 .634 0M8 1.146l-.535.438A8.5 8.5 0 0 1 3 3.455v4.702a6.5 6.5 0 0 0 3.01 5.484L8 14.907l1.99-1.266A6.5 6.5 0 0 0 13 8.157V3.455a8.5 8.5 0 0 1-4.465-1.87z"></path></svg>