<svg xmlns="http://www.w3.org/2000/svg" xmlns:xlink="http://www.w3.org/1999/xlink" width="16" height="16" viewBox="0 0 16 16">
  <defs>
    <g id="prefix__app_16px-a">
      <path fill="#404040" fill-rule="evenodd" d="M11 10.5q0-.255-.035-.5H8V7.035a3.5 3.5 0 1 0 3 3.465M7 11h2.95A2.5 2.5 0 1 1 7 8.05zM3 5.25c-.4 0-.75-.35-.75-.75s.35-.75.75-.75.75.35.75.75-.35.75-.75.75M0 3a2 2 0 0 1 2-2h12a2 2 0 0 1 2 2v11a2 2 0 0 1-2 2H2a2 2 0 0 1-2-2zm2-1h12a1 1 0 0 1 1 1v1H5v1h10v9a1 1 0 0 1-1 1H2a1 1 0 0 1-1-1V3a1 1 0 0 1 1-1" clip-rule="evenodd"/>
      <path fill="#009844" stroke="#009844" d="M9.5 6.55c.98.199 1.751.97 1.95 1.95H9.5z"/>
    </g>
  </defs>
  <use xlink:href="#prefix__app_16px-a"/>
</svg>
