<?xml version="1.0" encoding="utf-8"?>
<!-- Generator: Adobe Illustrator 28.2.0, SVG Export Plug-In . SVG Version: 6.00 Build 0)  -->
<svg version="1.1" id="Layer_1" xmlns="http://www.w3.org/2000/svg" xmlns:xlink="http://www.w3.org/1999/xlink" x="0px" y="0px"
	 viewBox="0 0 48 48" style="enable-background:new 0 0 48 48;" xml:space="preserve">
<style type="text/css">
	.st0{fill:none;stroke:#54565A;stroke-width:1.5;stroke-linecap:round;stroke-linejoin:round;}
	
		.st1{fill-rule:evenodd;clip-rule:evenodd;fill:#009845;stroke:#009845;stroke-width:1.5;stroke-linecap:round;stroke-linejoin:round;}
</style>
<path class="st0" d="M23.9,31.8c4.2,0,7.7-3.5,7.7-7.8s-3.4-7.8-7.7-7.8s-7.7,3.5-7.7,7.8S19.7,31.8,23.9,31.8z"/>
<path class="st0" d="M23.7,9.9c1.4,0,2.5-1.1,2.5-2.5S25.1,5,23.7,5c-1.4,0-2.5,1.1-2.5,2.5S22.3,9.9,23.7,9.9z"/>
<path class="st0" d="M23.7,43c1.4,0,2.5-1.1,2.5-2.5S25.1,38,23.7,38c-1.4,0-2.5,1.1-2.5,2.5S22.3,43,23.7,43z"/>
<path class="st0" d="M23.7,32.1v6"/>
<path class="st0" d="M23.7,9.9v5.5"/>
<path class="st0" d="M7.1,26.5c1.4,0,2.5-1.1,2.5-2.5c0-1.4-1.1-2.5-2.5-2.5S4.6,22.6,4.6,24C4.7,25.3,5.8,26.5,7.1,26.5z"/>
<path class="st0" d="M40.3,26.5c1.4,0,2.5-1.1,2.5-2.5c0-1.4-1.1-2.5-2.5-2.5s-2.5,1.1-2.5,2.5C37.8,25.3,38.9,26.5,40.3,26.5z"/>
<path class="st0" d="M32,24h5.8"/>
<path class="st0" d="M9.6,24h6.5"/>
<path class="st0" d="M12,14.7c1.4,0,2.5-1.1,2.5-2.5S13.4,9.7,12,9.7s-2.5,1.1-2.5,2.5S10.6,14.7,12,14.7z"/>
<path class="st0" d="M35.4,38.2c1.4,0,2.5-1.1,2.5-2.5s-1.1-2.5-2.5-2.5S33,34.3,33,35.7S34.1,38.2,35.4,38.2z"/>
<path class="st0" d="M29.5,29.8l4.2,4.2"/>
<path class="st0" d="M13.7,14l4.5,4.5"/>
<path class="st0" d="M12,38.2c1.4,0,2.5-1.1,2.5-2.5s-1.1-2.5-2.5-2.5s-2.5,1.1-2.5,2.5S10.6,38.2,12,38.2z"/>
<path class="st0" d="M35.5,14.7c1.4,0,2.5-1.1,2.5-2.5s-1.1-2.5-2.5-2.5S33,10.9,33,12.3C33,13.6,34.1,14.7,35.5,14.7z"/>
<path class="st0" d="M29.5,18.2l4.1-4.1"/>
<path class="st0" d="M13.7,34l4.5-4.5"/>
<path class="st1" d="M27.6,20.9c0.1,0.1,0.2,0.4,0,0.6l-4.7,4.7c-0.1,0.1-0.2,0.1-0.3,0.1c-0.1,0-0.2,0-0.3-0.1l-1.8-1.8
	c-0.2-0.2-0.1-0.4,0-0.6s0.4-0.1,0.6,0l1.5,1.5l4.4-4.4C27.2,20.7,27.4,20.7,27.6,20.9L27.6,20.9z"/>
</svg>
