<svg xmlns="http://www.w3.org/2000/svg" xmlns:xlink="http://www.w3.org/1999/xlink" width="48" height="48" viewBox="0 0 48 48">
  <defs>
    <g id="prefix__data_connection_48px-a" fill-rule="evenodd" clip-rule="evenodd">
      <path fill="#404040" d="M4.5 1A3.5 3.5 0 0 0 1 4.5v4.597h28.306v1H1v22.79a3.5 3.5 0 0 0 3.5 3.5h3.58v1H4.5a4.5 4.5 0 0 1-4.5-4.5V4.5A4.5 4.5 0 0 1 4.5 0h31.42a4.5 4.5 0 0 1 4.5 4.5v6.613h-1V4.5a3.5 3.5 0 0 0-3.5-3.5z"/>
      <path fill="#870064" d="m43.633 15.687 4.22-4.22-.707-.707-4.22 4.22-.619-.618a1 1 0 0 0-1.401-.013l-1.198 1.156-2.497-2.497a3 3 0 0 0-3.922-.28l-4.854 3.642a3 3 0 0 0-.321 4.521l9.663 9.663a3 3 0 0 0 4.521-.321l3.64-4.855a3 3 0 0 0-.278-3.921l-2.41-2.41 1.162-1.173a1 1 0 0 0-.003-1.41zM41.84 19.05l.002-.002-.694-.694.707-.707.69.69 1.158-1.167-2.103-2.1-1.904 1.838-3.192-3.192a2 2 0 0 0-2.614-.186l-4.855 3.64a2 2 0 0 0-.214 3.015l9.663 9.663a2 2 0 0 0 3.014-.214l3.64-4.855a2 2 0 0 0-.185-2.614zM12.651 36.858a3 3 0 0 1 .023-3.57l3.64-4.854a3 3 0 0 1 4.522-.321l1.446 1.446 3.412-3.413a.5.5 0 0 1 .707.708l-3.412 3.412 5.357 5.357 3.8-3.8a.5.5 0 0 1 .708.707l-3.8 3.8 1.445 1.446a3 3 0 0 1-.321 4.521l-4.855 3.641a3 3 0 0 1-3.92-.279l-2.498-2.497-1.198 1.156a1 1 0 0 1-1.402-.013l-.645-.645-4.194 4.193-.707-.707 4.194-4.193-.75-.75a1 1 0 0 1-.002-1.41l1.162-1.173-2.41-2.41a3 3 0 0 1-.302-.352m2.26 4.639 1.184-1.195 1.052 1.051.707-.707-4.435-4.434a2 2 0 0 1 .055-2.323l3.64-4.855a2 2 0 0 1 3.015-.214l9.663 9.663a2 2 0 0 1-.214 3.014l-4.855 3.641a2 2 0 0 1-2.614-.186l-3.192-3.192-1.905 1.838z"/>
    </g>
  </defs>
  <use xlink:href="#prefix__data_connection_48px-a"/>
</svg>
