<svg xmlns="http://www.w3.org/2000/svg" viewBox="0 0 16 16" height="16px" fill="currentColor" aria-hidden="true" role="img"><path d="M2.314 2.7c-.268.21-.314.363-.314.44s.046.23.314.44c.262.207.674.415 1.23.599 1.107.366 2.675.601 4.45.601 1.777 0 3.348-.235 4.457-.601.557-.184.97-.392 1.234-.6.27-.21.315-.363.315-.439s-.046-.228-.315-.44c-.263-.206-.677-.414-1.234-.598-1.11-.367-2.68-.602-4.456-.602s-3.344.235-4.45.602c-.557.184-.969.392-1.231.598m.916-1.548C4.464.744 6.143.5 7.995.5s3.533.244 4.77.652c.615.203 1.148.456 1.537.762.384.3.698.711.698 1.226s-.314.926-.698 1.227c-.39.305-.922.558-1.537.761-1.237.409-2.919.652-4.77.652-1.852 0-3.531-.243-4.765-.652-.614-.203-1.146-.456-1.534-.762C1.312 4.065 1 3.654 1 3.14s.312-.924.696-1.226c.388-.305.92-.559 1.534-.762M1.5 2.5A.5.5 0 0 1 2 3v10a.5.5 0 1 1-1 0V3a.5.5 0 0 1 .5-.5m13 .113a.5.5 0 0 1 .5.5V13a.5.5 0 1 1-1 0V3.113a.5.5 0 0 1 .5-.5M3.544 9.037c1.106.365 2.675.6 4.45.6 1.777 0 3.348-.235 4.457-.6.558-.184.97-.392 1.234-.598.27-.21.315-.363.315-.439h1c0 .515-.314.925-.698 1.226-.39.305-.922.558-1.538.76-1.236.408-2.918.651-4.77.651-1.85 0-3.53-.243-4.764-.65-.614-.203-1.146-.456-1.534-.761C1.313 8.925 1 8.514 1 8h1c0 .077.046.229.314.44.262.206.674.413 1.23.597m-.013 4.927c1.109.334 2.68.536 4.464.536 1.783 0 3.357-.202 4.469-.536.559-.168.97-.36 1.231-.554.265-.197.305-.339.305-.41h1c0 .52-.32.923-.708 1.212-.392.292-.926.526-1.54.71-1.234.37-2.913.578-4.757.578-1.845 0-3.52-.207-4.752-.578-.613-.184-1.146-.418-1.537-.71C1.318 13.922 1 13.519 1 13h1c0 .072.04.214.304.41.26.194.67.387 1.227.554"></path></svg>