<svg xmlns="http://www.w3.org/2000/svg" width="24" height="24" fill="none" viewBox="0 0 24 24">
  <path fill="#94579C" d="M14.312 9.195a.5.5 0 0 1 .547.115l4 4.117a.5.5 0 0 1 0 .697l-4 4.117a.5.5 0 0 1-.859-.349v-2.211h-1.117c-1.058 0-1.682-.549-2.15-.99l-.032-.028c-.476-.449-.73-.688-1.147-.688h-.001L4.503 14a.5.5 0 1 1-.005-1l5.055-.025c.83 0 1.367.513 1.766.895l.02.018.079.076c.438.412.815.716 1.465.716H15v1.98l2.803-2.885L15 10.89v1.859l-.533-.01-.07-.002-.266-.003c-.231-.002-.563-.005-.965-.005-.864 0-1.387-.546-1.763-.94l-.067-.07c-.41-.425-.72-.703-1.267-.703-.85 0-1.704-.004-2.345-.008l-.933-.005L6.495 11a.5.5 0 1 1 .01-1l.294.002.93.006a387 387 0 0 0 2.34.008c1.001 0 1.57.578 1.987 1.01.445.46.687.703 1.11.703.33 0 .614.002.834.004V9.658a.5.5 0 0 1 .312-.463M4 10.5a.5.5 0 1 1 1 0 .5.5 0 0 1-1 0"/>
  <g fill="#404040">
    <path d="M2 3h11a1 1 0 0 1 1 1h1a2 2 0 0 0-2-2H2a2 2 0 0 0-2 2v13a2 2 0 0 0 2 2h6v-1H2a1 1 0 0 1-1-1V4a1 1 0 0 1 1-1"/>
    <path d="M22 21H11a1 1 0 0 1-1-1v-4H9v4a2 2 0 0 0 2 2h11a2 2 0 0 0 2-2v-9.672a2 2 0 0 0-.586-1.414l-3.328-3.328A2 2 0 0 0 18.672 5H11a2 2 0 0 0-2 2v2h1V7a1 1 0 0 1 1-1h7.672a1 1 0 0 1 .707.293l3.328 3.328a1 1 0 0 1 .293.707V20a1 1 0 0 1-1 1"/>
    <path d="M18 7v3a1 1 0 0 0 1 1h3v-1h-3V7z"/>
  </g>
</svg>
