<svg xmlns="http://www.w3.org/2000/svg" viewBox="0 0 16 16" height="16px" fill="currentColor" aria-hidden="true" role="img"><path d="M15.9 5.5c0 .1.1.3.1.5v5c0 .2-.1.4-.1.5-.1.3-.4.5-.9.5h-5c-.2 0-.4-.1-.5-.1-.2-.1-.5-.4-.5-.9V9.9l-2 2.8V15c0 .5-.2.8-.5.9-.1 0-.3.1-.5.1H1c-.2 0-.4-.1-.5-.1-.3-.1-.5-.4-.5-.9v-5c0-.2.1-.4.1-.5.1-.3.4-.5.9-.5h2V7H1c-.5 0-.8-.2-.9-.5 0-.1-.1-.3-.1-.5V1C0 .8.1.6.1.5.2.2.5 0 1 0h5c.5 0 .8.2.9.5 0 .1.1.3.1.5v5c0 .2-.1.4-.1.5-.1.3-.4.5-.9.5H4v2h2c.2 0 .4.1.5.1.3.1.5.4.5.9v1l2-2.8V6c0-.2.1-.4.1-.5.1-.3.4-.5.9-.5h5c.5 0 .8.2.9.5M6 6V1H1v5zm-5 4v5h5v-5zm9-4v5h5V6z"></path></svg>