<svg xmlns="http://www.w3.org/2000/svg" viewBox="0 0 16 16" height="16" fill="currentColor" aria-hidden="true" role="img" alt=""><path d="M7.996 0c1.57 0 2.997.192 4.05.514.523.16.981.362 1.32.609.277.202.539.484.613.85l.02.163L14 9.93c0 .473-.312.819-.644 1.048-.341.236-.801.422-1.323.567-.842.235-1.925.386-3.128.437l-.405.013V13H9a1 1 0 0 1 .993.883L10 14h6v1h-6a1 1 0 0 1-.883.993L9 16H7a1 1 0 0 1-.993-.883L6 15H0v-1h6a1 1 0 0 1 .883-.993L7 13h.5v-1.005c-1.367-.031-2.602-.19-3.538-.45-.52-.146-.98-.332-1.32-.568-.295-.205-.573-.5-.63-.895L2 9.929V2.07a.5.5 0 0 1 .026-.16l.031-.072c.104-.3.333-.539.575-.716C2.97.876 3.428.675 3.95.515 5 .192 6.426 0 7.996 0M9 14H7v1h2zm4-6.716a5.5 5.5 0 0 1-.955.382c-1.052.322-2.48.513-4.05.513S5 7.988 3.95 7.666a5.5 5.5 0 0 1-.95-.38v2.643c0 .001 0 .017.024.053a.7.7 0 0 0 .188.173c.21.146.55.295 1.02.426.932.26 2.257.419 3.764.419s2.834-.158 3.769-.419c.47-.131.811-.28 1.022-.426a.7.7 0 0 0 .19-.174l.016-.03L13 9.93zm0-3.818a5.5 5.5 0 0 1-.955.383c-1.052.322-2.48.514-4.05.514S5 4.171 3.95 3.85a6 6 0 0 1-.734-.275L3 3.468V6l.009.03.018.033c.03.046.09.11.195.187.212.155.553.316 1.021.46.93.285 2.252.47 3.753.47 1.5 0 2.824-.185 3.757-.47.469-.144.81-.305 1.024-.46a.8.8 0 0 0 .196-.188l.018-.032L13 6zM7.996 1c-1.5 0-2.822.185-3.752.47-.469.144-.81.305-1.022.46a1 1 0 0 0-.166.15l-.029.038-.014.024-.013.04.009.03.007.015.04.056a1 1 0 0 0 .166.15c.213.155.553.316 1.022.46.93.286 2.252.47 3.752.47s2.824-.184 3.756-.47c.47-.144.812-.305 1.025-.461a1 1 0 0 0 .167-.15l.029-.038.018-.032.009-.03-.009-.03-.018-.033-.029-.038a1 1 0 0 0-.167-.15c-.213-.155-.555-.317-1.025-.46C10.82 1.185 9.495 1 7.996 1"></path></svg>