<svg xmlns="http://www.w3.org/2000/svg" xmlns:xlink="http://www.w3.org/1999/xlink" width="16" height="16" fill="none" viewBox="0 0 16 16">
  <defs>
    <g id="prefix__data_set_16px-a" fill-rule="evenodd" clip-rule="evenodd">
      <path fill="#870064" d="M7.058 7.886v-.001Zm.004-.01a.5.5 0 0 1 .142-.14c.16-.116.424-.242.799-.358C8.746 7.15 9.806 7 11 7s2.254.15 2.997.378c.375.116.64.242.8.358.099.073.131.12.141.14-.01.02-.042.315-.142.388-.16.116-.424.242-.799.358C13.254 8.85 12.194 9 11 9s-2.254-.15-2.997-.378c-.375-.116-.64-.242-.8-.358-.099-.073-.131-.369-.141-.388m7.88.01v-.001Zm0 .114v-.114ZM7.674 6.428C8.55 6.158 9.725 6 11 6s2.45.158 3.325.428c.435.133.825.303 1.117.516.285.208.558.518.558.932s-.273.972-.558 1.18c-.292.213-.682.383-1.117.516-.875.27-2.05.428-3.325.428s-2.45-.158-3.325-.428c-.435-.133-.825-.303-1.117-.516C6.273 8.848 6 8.29 6 7.876s.273-.724.558-.932c.292-.213.682-.383 1.117-.516Zm7.268 7.687v.01H16c0 .413-.273.723-.558.93-.292.214-.682.384-1.117.517-.875.27-2.05.428-3.325.428s-2.45-.158-3.325-.428c-.435-.133-.825-.303-1.117-.516-.285-.208-.558-.518-.558-.932h1.059v-.009c.002.009.023.06.145.149.16.116.424.242.799.358C8.746 14.85 9.806 15 11 15s2.254-.15 2.997-.378c.375-.116.64-.242.8-.358.12-.089.142-.14.145-.149m0-.001zm-7.884 0zm7.884-2.999v.01H16c0 .413-.273.723-.558.93-.292.214-.682.384-1.117.517-.875.27-2.05.428-3.325.428s-2.45-.158-3.325-.428c-.435-.133-.825-.303-1.117-.516-.285-.208-.558-.518-.558-.932h1.059v-.009c.002.009.023.06.145.149.16.116.424.242.799.358C8.746 11.85 9.806 12 11 12s2.254-.15 2.997-.378c.375-.116.64-.242.8-.358.12-.089.142-.14.145-.149m0-.001zm-7.884 0z"/>
      <path fill="#870064" d="M7.058 7.886v-.001Zm.004-.01a.5.5 0 0 1 .142-.14c.16-.116.424-.242.799-.358C8.746 7.15 9.806 7 11 7s2.254.15 2.997.378c.375.116.64.242.8.358.099.073.131.12.141.14-.01.02-.042.315-.142.388-.16.116-.424.242-.799.358C13.254 8.85 12.194 9 11 9s-2.254-.15-2.997-.378c-.375-.116-.64-.242-.8-.358-.099-.073-.131-.369-.141-.388m7.88.01v-.001Zm0 .114v-.114ZM7.674 6.428C8.55 6.158 9.725 6 11 6s2.45.158 3.325.428c.435.133.825.303 1.117.516.285.208.558.518.558.932s-.273.972-.558 1.18c-.292.213-.682.383-1.117.516-.875.27-2.05.428-3.325.428s-2.45-.158-3.325-.428c-.435-.133-.825-.303-1.117-.516C6.273 8.848 6 8.29 6 7.876s.273-.724.558-.932c.292-.213.682-.383 1.117-.516Zm-1.144.944c.292 0 .558.352.558.628l-.03 6.124c0 .276-.236.5-.529.5-.292 0-.529-.224-.529-.5V7.872c0-.276.237-.5.53-.5m8.94 0c.293 0 .53.224.53.5v6.252c0 .276-.237.5-.53.5-.292 0-.529-.224-.529-.5l.001-6.238c0-.276.236-.514.529-.514Z"/>
      <path d="M14.942 11.115v.01H16c0 .413-.273.723-.558.93-.292.214-.682.384-1.117.517-.875.27-2.05.428-3.325.428s-2.45-.158-3.325-.428c-.435-.133-.825-.303-1.117-.516-.285-.208-.558-.518-.558-.932h1.059v-.009c.002.009.023.06.145.149.16.116.424.242.799.358C8.746 11.85 9.806 12 11 12s2.254-.15 2.997-.378c.375-.116.64-.242.8-.358.12-.089.142-.14.145-.149m0-.001zm-7.884 0zm7.884 3.001v.01H16c0 .413-.273.723-.558.93-.292.214-.682.384-1.117.517-.875.27-2.05.428-3.325.428s-2.45-.158-3.325-.428c-.435-.133-.825-.303-1.117-.516-.285-.208-.558-.518-.558-.932h1.059v-.009c.002.009.023.06.145.149.16.116.424.242.799.358C8.746 14.85 9.806 15 11 15s2.254-.15 2.997-.378c.375-.116.64-.242.8-.358.12-.089.142-.14.145-.149m0-.001zm-7.884 0z"/>
      <path fill="#404040" d="M12 1H2a1 1 0 0 0-1 1v1h12V2a1 1 0 0 0-1-1m1 3v1h1V2a2 2 0 0 0-2-2H2a2 2 0 0 0-2 2v9a2 2 0 0 0 2 2h3v-1H2a1 1 0 0 1-1-1V4z"/>
    </g>
  </defs>
  <use xlink:href="#prefix__data_set_16px-a"/>
</svg>
