<svg xmlns="http://www.w3.org/2000/svg" viewBox="0 0 16 16" height="16px" fill="currentColor" aria-hidden="true" role="img"><path d="M10.274 4.043c.313-.295.634-.7.907-1.164.45-.766.819-1.77.819-2.879h-1c0 .89-.298 1.72-.681 2.371-.286.487-.595.834-.823 1.028A3 3 0 0 0 8 3c-.545 0-1.055.145-1.496.399-.228-.194-.537-.541-.823-1.028C5.298 1.721 5 .891 5 0H4c0 1.11.369 2.113.819 2.879.273.464.594.87.907 1.164A3 3 0 0 0 5 6v.268A2 2 0 0 0 4 8v1l-1-.75V6H2v2.75l2 1.5v.25H1v1h3v.25l-2 1.5V16h1v-2.25l1.106-.83a4.002 4.002 0 0 0 7.788 0l1.106.83V16h1v-2.75l-2-1.5v-.25h3v-1h-3v-.25l2-1.5V6h-1v2.25L12 9V8a2 2 0 0 0-1-1.732V6c0-.748-.274-1.431-.726-1.957M8 4a2 2 0 0 1 2 2H6a2 2 0 0 1 2-2M6 7h1.5v7.959A3 3 0 0 1 5 12V8a1 1 0 0 1 1-1m2.5 0H10a1 1 0 0 1 1 1v4a3 3 0 0 1-2.5 2.959z"></path></svg>