<svg xmlns="http://www.w3.org/2000/svg" viewBox="0 0 16 16" height="16px" fill="currentColor" aria-hidden="true" role="img"><path d="M15 1a1 1 0 0 1 1 1v7a1 1 0 0 1-1 1h-4v4a1 1 0 0 1-1 1H1a1 1 0 0 1-1-1V7a1 1 0 0 1 1-1h4V2a1 1 0 0 1 1-1zM5 7H1.5a.5.5 0 0 0-.492.41L1 7.5v6a.5.5 0 0 0 .41.492L1.5 14h8a.5.5 0 0 0 .492-.41L10 13.5V10H6a1 1 0 0 1-.993-.883L5 9zm9.5-5h-8l-.09.008a.5.5 0 0 0-.402.402L6 2.5v6l.008.09a.5.5 0 0 0 .402.402L6.5 9h8l.09-.008a.5.5 0 0 0 .402-.402L15 8.5v-6l-.008-.09a.5.5 0 0 0-.402-.402z"></path></svg>