<svg xmlns="http://www.w3.org/2000/svg" viewBox="0 0 16 16" height="16px" fill="currentColor" aria-hidden="true" role="img"><path d="M15.502 15.004a.5.5 0 1 1 0 1h-8a.5.5 0 0 1 0-1zM12.842.493 15.67 3.32a1 1 0 0 1 0 1.415l-9.18 9.179a.5.5 0 0 1-.13.1l-.079.035-5.303 1.768a.5.5 0 0 1-.654-.543l.021-.09 1.768-5.303a.5.5 0 0 1 .072-.14l.049-.056L11.427.493a1 1 0 0 1 1.414 0ZM2.806 10.963l-.875 2.623.616.652 2.652-.882zm7.207-7.642-6.718 6.717 2.828 2.828 6.718-6.717zm2.405-1.825a.5.5 0 0 0-.493-.044l-.076.044-.07.058-1.06 1.06 2.83 2.828 1.06-1.06.057-.07a.5.5 0 0 0 .043-.492l-.043-.076-.058-.07-2.121-2.12-.07-.058Z"></path></svg>