<svg xmlns="http://www.w3.org/2000/svg" viewBox="0 0 16 16" height="16px" fill="currentColor" aria-hidden="true" role="img"><path d="M14.207.332a1 1 0 0 0-1.414 0L.32 12.805a1 1 0 0 0 0 1.414l1.476 1.477a1 1 0 0 0 1.414 0L15.683 3.223a1 1 0 0 0 0-1.414zm.77 2.184L13.1 4.392l-1.477-1.476L13.5 1.039l1.476 1.477ZM12.391 5.1 5.1 12.392l-1.476-1.476 7.293-7.293zm-8 8-1.889 1.889-1.476-1.477 1.889-1.889L4.392 13.1ZM6.914.379l.707.707L6.207 2.5l1.414 1.414-.707.707L5.5 3.207 4.086 4.621l-.707-.707L4.793 2.5 3.379 1.086l.707-.707L5.5 1.793zm9 7.414-.707-.707-.707.707-.707-.707-.707.707.707.707-.707.707.707.707.707-.707.707.707.707-.707-.707-.707zm-5.474 3.939-.708.707 1.06 1.061-1.06 1.06.707.708 1.06-1.06 1.061 1.06.708-.707-1.061-1.061 1.06-1.06-.707-.708-1.06 1.06z"></path></svg>