<svg xmlns="http://www.w3.org/2000/svg" viewBox="0 0 16 16" height="16px" fill="currentColor" aria-hidden="true" role="img"><path d="m8 0 1.7 1 3.303.015a1 1 0 0 1 .995 1V3.7l1.554 1.028a1 1 0 0 1 .448.834v9.435a1 1 0 0 1-1 1H1a1 1 0 0 1-1-1v-9.47a1 1 0 0 1 .46-.842l1.535-.986V2.015a1 1 0 0 1 .995-1L6.3 1zm-.017 10.721c-.2.02-.387.1-.538.232l-5.293 4.072h11.664l-5.285-4.088a1.1 1.1 0 0 0-.548-.216M15 6.388l-5.195 4.037L15 14.502zM1 6.387V14.5l5.2-4.071zm11.8-4.361H3.2a.2.2 0 0 0-.2.2v4.259l2 1.541 2.027 1.558.138.112.154-.074c.209-.09.435-.135.663-.134.298 0 .591.072.854.212l.25-.21 1.91-1.466-.012-.001L13 6.465V2.226a.2.2 0 0 0-.2-.2M4 8.025v-1h5v1zm0-2v-1h8v1zm0-2v-1h3v1z"></path></svg>