<svg xmlns="http://www.w3.org/2000/svg" viewBox="0 0 16 16" height="16px" fill="currentColor" aria-hidden="true" role="img" class="css-157m03x"><path d="M6.919.439A1.5 1.5 0 0 1 8.925.336l.114.103 6.48 6.48a1.5 1.5 0 0 1 .102 2.006l-.102.114-6.48 6.48a1.5 1.5 0 0 1-2.006.102l-.114-.102-6.48-6.48a1.5 1.5 0 0 1-.103-2.006l.103-.114zm1.56 10.54h-1c-.267 0-.455.158-.493.404l-.007.096v1c0 .266.158.454.404.492l.096.008h1c.266 0 .454-.158.492-.404l.008-.096v-1c0-.267-.158-.455-.404-.493zm0-8h-1c-.3 0-.5.2-.5.5v5c0 .3.2.5.5.5h1c.3 0 .5-.2.5-.5v-5c0-.3-.2-.5-.5-.5"></path></svg>