<svg width="16" height="16" viewBox="0 0 16 16" fill="none" xmlns="http://www.w3.org/2000/svg"><g id="icons/outline/error" clip-path="url(#clip0_532_5118)"><g id="Vector"><path fill-rule="evenodd" clip-rule="evenodd" d="M7.64643 1.16775L1.16775 7.64643L0.460641 6.93932L6.93932 0.460641C7.52511 -0.125146 8.47486 -0.125145 9.06064 0.460641L15.5393 6.93932C16.1251 7.52511 16.1251 8.47486 15.5393 9.06064L9.06064 15.5393C8.47485 16.1251 7.52511 16.1251 6.93932 15.5393L0.460641 9.06064C-0.125146 8.47485 -0.125145 7.52511 0.460641 6.93932L1.16775 7.64643C0.972486 7.84169 0.972486 8.15827 1.16775 8.35353L7.64643 14.8322C7.84169 15.0275 8.15827 15.0275 8.35353 14.8322L14.8322 8.35353C15.0275 8.15827 15.0275 7.84169 14.8322 7.64643L8.35353 1.16775C8.15827 0.972486 7.84169 0.972486 7.64643 1.16775Z" fill="#D7004B"></path><path d="M8.74999 11C8.74999 11.4142 8.4142 11.75 7.99999 11.75C7.58577 11.75 7.24999 11.4142 7.24999 11C7.24999 10.5858 7.58577 10.25 7.99999 10.25C8.4142 10.25 8.74999 10.5858 8.74999 11Z" fill="#D7004B"></path><path d="M7.49999 3.99998H8.49999V8.99998H7.49999V3.99998Z" fill="#D7004B"></path></g></g><defs><clipPath id="clip0_532_5118"><rect width="16" height="16" fill="white"></rect></clipPath></defs></svg>