<svg xmlns="http://www.w3.org/2000/svg" viewBox="0 0 16 16" height="16px" fill="currentColor" aria-hidden="true" role="img"><path d="M10.5 7a4.5 4.5 0 1 1 0 9 4.5 4.5 0 0 1 0-9M10 0a1 1 0 0 1 .993.883L11 1h1a1 1 0 0 1 1 1v4.6a5.5 5.5 0 0 0-1-.393V2h-1v1a1 1 0 0 1-.883.993L10 4H4a1 1 0 0 1-.993-.883L3 3V2H2v13h4.257q.378.457.843.824l.237.176H2a1 1 0 0 1-.993-.883L1 15V2a1 1 0 0 1 .883-.993L2 1h1a1 1 0 0 1 .883-.993L4 0zm.5 8a3.5 3.5 0 1 0 0 7 3.5 3.5 0 0 0 0-7m1.963 1.794.743.669-2.9 3.222-2.009-1.607.625-.78 1.272 1.017zM4 3h6V1H4z"></path></svg>