<svg xmlns="http://www.w3.org/2000/svg" viewBox="0 0 16 16" height="14" fill="currentColor" aria-hidden="true" role="img" aria-label="This item has not been viewed in the last 28 days." data-testid="metrics-view-icon" class="css-bvj2sv"><path d="M7.999 2c2.545 0 4.508 1.543 5.89 3a13.8 13.8 0 0 1 2.108 3 13.8 13.8 0 0 1-2.109 3c-1.381 1.457-3.344 3-5.89 3-2.544 0-4.508-1.543-5.89-3A13.8 13.8 0 0 1 0 8a13.8 13.8 0 0 1 2.109-3c1.381-1.457 3.345-3 5.89-3m0 1C5.877 3 4.164 4.287 2.837 5.685A12.7 12.7 0 0 0 1.14 8a12.7 12.7 0 0 0 1.697 2.315C4.164 11.713 5.877 13 8 13c2.12 0 3.834-1.287 5.161-2.685A12.7 12.7 0 0 0 14.857 8a12.7 12.7 0 0 0-1.697-2.315C11.833 4.287 10.12 3 7.999 3M8 4.5a3.5 3.5 0 1 1 0 7 3.5 3.5 0 0 1 0-7m0 1a2.5 2.5 0 1 0 0 5 2.5 2.5 0 0 0 0-5m.707 1.793a1 1 0 1 1-1.414 1.414 1 1 0 0 1 1.414-1.414"></path></svg>