<svg xmlns="http://www.w3.org/2000/svg" xmlns:xlink="http://www.w3.org/1999/xlink" width="40" height="40" fill="none" viewBox="0 0 40 40">
  <defs>
    <g id="prefix__parquet_40px-a">
      <path fill="#870064" d="M1.862 32v-5.868h2.016q.648 0 1.17.18.531.171.846.585t.315 1.125q0 .684-.315 1.125t-.837.657a3.1 3.1 0 0 1-1.143.207h-.729V32zm1.323-3.042h.648q1.08 0 1.08-.936 0-.459-.288-.648t-.828-.189h-.612zm4.968.072-.144.54h1.25l-.134-.54a96 96 0 0 1-.243-.936q-.117-.495-.234-.954h-.036l-.225.963q-.108.486-.234.927M6.029 32l1.836-5.868h1.593L11.293 32H9.89l-.36-1.395H7.739L7.379 32zm5.906 0v-5.868h2.115q.621 0 1.134.171.513.162.819.558t.306 1.098q0 .648-.288 1.071a1.7 1.7 0 0 1-.756.621L16.597 32h-1.485l-1.125-2.115h-.73V32zm1.323-3.168h.684q.522 0 .792-.216.279-.225.279-.657t-.28-.603q-.27-.171-.791-.171h-.684zm6.581 2.196q.603 0 .954-.522.351-.531.351-1.467 0-.882-.35-1.377a1.11 1.11 0 0 0-.955-.495q-.603 0-.954.495-.35.495-.35 1.377 0 .936.35 1.467.351.522.954.522m1.935 2.61q-.927 0-1.575-.459a2.8 2.8 0 0 1-.963-1.134 2.42 2.42 0 0 1-1.503-.981q-.558-.783-.558-2.025 0-.963.333-1.629.342-.675.936-1.026.603-.36 1.395-.36c.792 0 .99.12 1.386.36q.603.351.936 1.026.342.675.342 1.629 0 1.179-.504 1.953-.504.765-1.359 1.008.207.306.558.441.36.135.73.135.188 0 .35-.036a3 3 0 0 0 .297-.063l.234.963a1.8 1.8 0 0 1-.432.135 2.6 2.6 0 0 1-.603.063m4.146-1.53q-1.143 0-1.746-.675t-.603-2.151v-3.15h1.332v3.285q0 .864.26 1.206.262.342.757.342c.495 0 .585-.114.765-.342q.27-.342.27-1.206v-3.285h1.278v3.15q0 1.476-.594 2.151-.585.675-1.72.675ZM29.592 32v-5.868h3.672v1.116h-2.35v1.179h1.999v1.107h-1.998v1.35h2.439V32zm6.074 0v-4.752h-1.611v-1.116h4.554v1.116h-1.611V32z"/>
      <path stroke="#404040" d="M27.5.5v7a3 3 0 0 0 3 3h7M8 7.5h10m-10 6h12.5M8 19.5h20"/>
      <path fill="#404040" fill-rule="evenodd" d="M37 23V11.036a1.5 1.5 0 0 0-.44-1.061l-8.535-8.536A1.5 1.5 0 0 0 26.965 1H7a4 4 0 0 0-4 4v18H2V5a5 5 0 0 1 5-5h19.965a2.5 2.5 0 0 1 1.767.732l8.536 8.536A2.5 2.5 0 0 1 38 11.036V23zm1 12h-1a4 4 0 0 1-4 4H7a4 4 0 0 1-4-4H2a5 5 0 0 0 5 5h26a5 5 0 0 0 5-5" clip-rule="evenodd"/>
    </g>
  </defs>
  <use xlink:href="#prefix__parquet_40px-a"/>
</svg>
