<svg xmlns="http://www.w3.org/2000/svg" xmlns:xlink="http://www.w3.org/1999/xlink" width="40" height="40" viewBox="0 0 40 40">
  <defs>
    <g id="prefix__csv_40px-a" fill="none">
      <path fill="#870064" d="M14.681 33.132q-.902 0-1.66-.418a3.13 3.13 0 0 1-1.222-1.232q-.45-.825-.45-2.024 0-1.188.461-2.024.474-.848 1.243-1.287a3.3 3.3 0 0 1 1.683-.451q.694 0 1.243.286.55.275.913.649l-.858 1.034a2.5 2.5 0 0 0-.583-.407 1.4 1.4 0 0 0-.682-.165q-.484 0-.89.275-.397.274-.639.792-.23.517-.23 1.243 0 1.1.472 1.716.473.616 1.265.616.44 0 .781-.198.352-.198.616-.473l.858 1.012q-.902 1.056-2.32 1.056Zm5.288 0q-.705 0-1.408-.264a3.8 3.8 0 0 1-1.243-.77l.924-1.111q.386.33.858.539.473.21.913.209.506 0 .748-.187a.6.6 0 0 0 .253-.506.52.52 0 0 0-.286-.495 6 6 0 0 0-.748-.363l-.935-.396a3.2 3.2 0 0 1-.693-.407q-.33-.264-.539-.649a1.86 1.86 0 0 1-.209-.902q0-.594.32-1.078.33-.485.901-.77.583-.285 1.331-.286.615 0 1.232.242.615.242 1.078.704l-.825 1.023a3 3 0 0 0-.704-.418 1.9 1.9 0 0 0-.78-.154q-.42 0-.672.176a.54.54 0 0 0-.242.473q0 .33.308.495.32.165.781.352l.924.374q.649.264 1.034.726c.385.462.385.715.385 1.221q0 .594-.319 1.1t-.924.814q-.604.308-1.463.308M25.135 33l-2.167-7.172h1.716l.858 3.344q.166.583.286 1.144.132.561.297 1.155h.044q.154-.594.286-1.155.133-.56.286-1.144l.847-3.344h1.65L27.082 33z"/>
      <path stroke="#404040" d="M37.5 11.036V35a4.5 4.5 0 0 1-4.5 4.5H7A4.5 4.5 0 0 1 2.5 35V5A4.5 4.5 0 0 1 7 .5h19.965a2 2 0 0 1 1.414.586l8.535 8.535a2 2 0 0 1 .586 1.415Z"/>
      <path stroke="#404040" d="M27.5.5v7a3 3 0 0 0 3 3h7M8 7.5h10m-10 6h12.5M8 19.5h20"/>
    </g>
  </defs>
  <use xlink:href="#prefix__csv_40px-a"/>
</svg>
