<svg xmlns="http://www.w3.org/2000/svg" xmlns:xlink="http://www.w3.org/1999/xlink" width="24" height="24" viewBox="0 0 24 24">
  <defs>
    <g id="prefix__file_24px-a" fill="none">
      <path stroke="#404040" d="M22.5 6.621V21a2.5 2.5 0 0 1-2.5 2.5H4A2.5 2.5 0 0 1 1.5 21V3A2.5 2.5 0 0 1 4 .5h12.379a1 1 0 0 1 .707.293l5.121 5.121a1 1 0 0 1 .293.707ZM16.5.5v4.2a1.8 1.8 0 0 0 1.8 1.8h4.2"/>
      <path fill="#404040" fill-rule="evenodd" d="M16 12H5v-1h11zm-3 5H5v-1h8z" clip-rule="evenodd"/>
      <path fill="#870064" fill-rule="evenodd" d="M13 7H5V6h8z" clip-rule="evenodd"/>
    </g>
  </defs>
  <use xlink:href="#prefix__file_24px-a"/>
</svg>
