<svg xmlns="http://www.w3.org/2000/svg" xmlns:xlink="http://www.w3.org/1999/xlink" width="40" height="40" fill="none" viewBox="0 0 40 40">
  <defs>
    <g id="prefix__qvd_40px-a">
      <path fill="#870064" d="M13.509 31.812q.736 0 1.166-.638.429-.649.429-1.793 0-1.079-.43-1.683a1.36 1.36 0 0 0-1.165-.605q-.738 0-1.166.605-.43.604-.43 1.683 0 1.144.43 1.793.428.638 1.166.638m2.365 3.19q-1.134 0-1.925-.561a3.4 3.4 0 0 1-1.177-1.386 2.95 2.95 0 0 1-1.837-1.199q-.682-.957-.682-2.475 0-1.177.407-1.991.418-.825 1.144-1.254.736-.44 1.705-.44c.969 0 1.21.147 1.694.44q.736.429 1.144 1.254.417.825.418 1.991 0 1.44-.616 2.387A2.88 2.88 0 0 1 14.488 33q.252.374.682.539.44.165.89.165a2 2 0 0 0 .43-.044q.209-.033.363-.077l.286 1.177a2.1 2.1 0 0 1-.528.165 3.2 3.2 0 0 1-.737.077M19.249 33l-2.167-7.172h1.716l.858 3.344q.165.583.286 1.144.132.561.297 1.155h.044q.154-.594.286-1.155.132-.56.286-1.144l.847-3.344h1.65L21.196 33zm4.869 0v-7.172h2.024q1.1 0 1.903.374.803.375 1.243 1.166.45.78.451 2.013c.001 1.233-.147 1.5-.44 2.035a2.8 2.8 0 0 1-1.232 1.199q-.78.385-1.837.385zm1.617-1.309h.308q.615 0 1.067-.22.462-.22.715-.726t.253-1.364-.253-1.342a1.43 1.43 0 0 0-.715-.693q-.45-.21-1.067-.209h-.308z"/>
      <path stroke="#404040" d="M37.5 11.036V35a4.5 4.5 0 0 1-4.5 4.5H7A4.5 4.5 0 0 1 2.5 35V5A4.5 4.5 0 0 1 7 .5h19.965a2 2 0 0 1 1.414.586l8.535 8.535a2 2 0 0 1 .586 1.415Z"/>
      <path stroke="#404040" d="M27.5.5v7a3 3 0 0 0 3 3h7M8 7.5h10m-10 6h12.5M8 19.5h20"/>
    </g>
  </defs>
  <use xlink:href="#prefix__qvd_40px-a"/>
</svg>
