<svg xmlns="http://www.w3.org/2000/svg" viewBox="0 0 16 16" height="16" fill="currentColor" aria-hidden="true" role="img" alt=""><path d="M15.953.05q.55 6.06-4.905 10.402l.307 1.537a1.5 1.5 0 0 1-.578 1.5l-.12.08-3.194 1.94a.3.3 0 0 1-.455-.256v-2.937l-.346-.345a4.9 4.9 0 0 1-2.279 2.062Q3.346 14.505 0 16q1.586-3.822 2.085-4.708c.437-.773 1.108-1.404 2.003-1.892l-.386-.387L.35 8.641a.3.3 0 0 1-.208-.478l2.293-3.08c.341-.34.799-.53 1.233-.495l.144.02 1.74.346Q9.895-.5 15.954.051M10.181 11.12c-.673.478-1.392.95-2.18 1.395L8 14.027l2.162-1.315a.5.5 0 0 0 .242-.438l-.01-.089zm-5.377-.964-.185.094c-.765.407-1.315.919-1.663 1.534q-.28.497-1.412 2.67l2.426-1.33a3.9 3.9 0 0 0 1.755-1.533l.122-.21.074-.148zm10.218-8.839v-.314L15.003 1C10.947.955 7.543 3.23 4.725 7.951l-.24.41 3.176 3.176.061-.034c4.841-2.788 7.233-6.163 7.3-10.187M3.27 5.688l-.06.047-1.52 2.046 1.859.205q.654-1.155 1.357-2.144l-1.27-.254c-.104-.02-.255.025-.366.1m8.46-1.395a2 2 0 1 1-2.828 2.829 2 2 0 0 1 2.828-2.829M9.61 5a1 1 0 1 0 1.413 1.414A1 1 0 0 0 9.61 5"></path></svg>