<svg xmlns="http://www.w3.org/2000/svg" xmlns:xlink="http://www.w3.org/1999/xlink" width="16" height="16" fill="none" viewBox="0 0 16 16">
  <defs>
    <g id="prefix__glossary_16px-a" fill-rule="evenodd" clip-rule="evenodd">
      <path fill="#009845" d="M3 10a3 3 0 0 1 5.861-.904 2.2 2.2 0 0 1 1.278 0A3.001 3.001 0 0 1 16 10a3 3 0 0 1-5.998.111A1.2 1.2 0 0 0 9.5 10a1.2 1.2 0 0 0-.502.111A3 3 0 0 1 3 10m3-2a2 2 0 1 0 0 4 2 2 0 0 0 0-4m7 0a2 2 0 1 0 0 4 2 2 0 0 0 0-4"/>
      <path fill="#404040" d="M0 2a2 2 0 0 1 2-2h9.5a.5.5 0 0 1 0 1h-.214a2.2 2.2 0 0 0 0 2h.214a.5.5 0 0 1 .5.5v3h-1V4H2a2 2 0 0 1-1-.268V14a1 1 0 0 0 1 1h9v-1h1v1a1 1 0 0 1-1 1H2a2 2 0 0 1-2-2zm1 0a1 1 0 0 0 1 1h8.206a3.2 3.2 0 0 1 0-2H2a1 1 0 0 0-1 1"/>
    </g>
  </defs>
  <use xlink:href="#prefix__glossary_16px-a"/>
</svg>
