<svg xmlns="http://www.w3.org/2000/svg" viewBox="0 0 16 16" height="16" fill="currentColor" aria-hidden="true" role="img" alt=""><path d="M14.4 13.2H1.6c-.96 0-1.6-.64-1.6-1.6v-8C0 2.64.64 2 1.6 2h12.8c1.04 0 1.6.56 1.6 1.6v8c0 1.04-.56 1.6-1.6 1.6M1.6 2.8c-.32 0-.8.48-.8.8v8c0 .32.48.8.8.8h12.8c.32 0 .8-.48.8-.8v-8c0-.32-.48-.8-.8-.8zm6.56 8c0-.96-.96-1.68-2.24-1.84v-.48c.32-.24.64-.72.72-1.2.08 0 .16-.08.16-.08v-.72c0-1.2-.64-1.84-1.52-1.84s-1.52.72-1.52 1.92v.72c0 .08.08.08.16.08.08.48.32.88.72 1.12v.4C3.36 9.12 2.4 9.92 2.4 10.8zm5.44-2.4h-4v.8h4zm0 1.6h-4v.8h4zm0-3.2h-4v.8h4zm0-1.6h-4V6h4z"></path></svg>