<svg xmlns="http://www.w3.org/2000/svg" viewBox="0 0 16 16" height="16px" fill="currentColor" aria-hidden="true" role="img"><path d="M12 5h3V1h-3zm0 1a1 1 0 0 1-1-1V2.89A2.203 2.203 0 0 0 8.473 4.7l-.069.415A3.45 3.45 0 0 1 6.79 7.5a3.45 3.45 0 0 1 1.615 2.384l.07.415A2.203 2.203 0 0 0 11 12.11V11a1 1 0 0 1 1-1h3a1 1 0 0 1 1 1v4a1 1 0 0 1-1 1h-3a1 1 0 0 1-1-1v-1.88a3.204 3.204 0 0 1-3.513-2.657l-.07-.415A2.45 2.45 0 0 0 5 8v2a1 1 0 0 1-1 1H1a1 1 0 0 1-1-1V5a1 1 0 0 1 1-1h3a1 1 0 0 1 1 1v2c1.198 0 2.22-.866 2.418-2.048l.069-.415A3.204 3.204 0 0 1 11 1.88V1a1 1 0 0 1 1-1h3a1 1 0 0 1 1 1v4a1 1 0 0 1-1 1zM1 10h3V5H1zm11 1v4h3v-4z"></path></svg>