<?xml version="1.0" encoding="utf-8"?>
<!-- Generator: Adobe Illustrator 16.0.0, SVG Export Plug-In . SVG Version: 6.00 Build 0)  -->
<!DOCTYPE svg PUBLIC "-//W3C//DTD SVG 1.1//EN" "http://www.w3.org/Graphics/SVG/1.1/DTD/svg11.dtd">
<svg version="1.1" id="Layer_1" xmlns="http://www.w3.org/2000/svg" xmlns:xlink="http://www.w3.org/1999/xlink" x="0px" y="0px"
	 width="26px" height="26px" viewBox="0 0 26 26" enable-background="new 0 0 26 26" xml:space="preserve">
<g>
	<path fill="#FFFFFF" d="M0.5,13C0.5,6.096,6.096,0.5,13,0.5c6.903,0,12.5,5.596,12.5,12.5c0,6.903-5.597,12.5-12.5,12.5
		C6.096,25.5,0.5,19.903,0.5,13"/>
	<g>
		<circle fill="none" stroke="#000000" stroke-width="0.625" stroke-miterlimit="10" cx="13" cy="13" r="12.5"/>
	</g>
	<path fill="#000000" d="M16.504,21.255h-6.74v-0.781c0.183-0.014,0.366-0.03,0.544-0.052c0.178-0.021,0.331-0.06,0.458-0.105
		c0.225-0.086,0.386-0.209,0.479-0.371c0.094-0.161,0.137-0.368,0.137-0.632v-6.207c0-0.247-0.056-0.467-0.17-0.654
		c-0.111-0.19-0.254-0.34-0.425-0.455c-0.127-0.085-0.323-0.169-0.582-0.246c-0.259-0.076-0.497-0.127-0.708-0.148v-0.777
		l5.226-0.28l0.158,0.162v8.467c0,0.25,0.054,0.463,0.161,0.632c0.105,0.174,0.259,0.306,0.458,0.391
		c0.14,0.064,0.297,0.124,0.467,0.17c0.175,0.052,0.349,0.086,0.536,0.107V21.255z M14.945,6.707c0,0.544-0.207,1.002-0.626,1.384
		C13.905,8.47,13.411,8.66,12.843,8.66c-0.573,0-1.069-0.19-1.486-0.569c-0.417-0.382-0.624-0.84-0.624-1.384
		c0-0.539,0.208-1.001,0.624-1.384c0.417-0.386,0.913-0.577,1.486-0.577c0.578,0,1.07,0.191,1.486,0.577
		C14.742,5.706,14.945,6.168,14.945,6.707"/>
</g>
</svg>
