<svg xmlns="http://www.w3.org/2000/svg" viewBox="0 0 16 16" height="16px" fill="currentColor" aria-hidden="true" role="img" data-testid="graph-description"><path d="M8 0c4.4 0 8 3.6 8 8s-3.6 8-8 8-8-3.6-8-8 3.6-8 8-8m.5 6h-2a.5.5 0 0 0-.492.41L6 6.5v1a.5.5 0 0 0 .41.492L6.5 8H7v3h-.5a.5.5 0 0 0-.492.41L6 11.5v1a.5.5 0 0 0 .41.492L6.5 13h3a.5.5 0 0 0 .492-.41L10 12.5v-1a.5.5 0 0 0-.41-.492L9.5 11H9V6.5a.5.5 0 0 0-.41-.492zm-.625-3.75a1.375 1.375 0 1 0 0 2.75 1.375 1.375 0 0 0 0-2.75"></path></svg>