<svg xmlns="http://www.w3.org/2000/svg" viewBox="0 0 16 15" height="16px" fill="currentColor" aria-hidden="true" role="img" class="css-147ro9l"><path d="M4 0H3v1H2v1h1v1h1V2h1V1H4zM2 10h1v2h2v1H3v2H2v-2H0v-1h2zm5.877-4.963L9 2.209l1.123 2.828a1.5 1.5 0 0 0 .84.84L13.791 7l-2.828 1.123a1.5 1.5 0 0 0-.84.84L9 11.791 7.877 8.963a1.5 1.5 0 0 0-.84-.84L4.209 7l2.828-1.123a1.5 1.5 0 0 0 .84-.84m-.93-.37a.5.5 0 0 1-.28.28L2.67 6.536a.5.5 0 0 0 0 .93l3.998 1.587a.5.5 0 0 1 .28.28l1.587 3.998a.5.5 0 0 0 .93 0l1.587-3.998a.5.5 0 0 1 .28-.28l3.998-1.587a.5.5 0 0 0 0-.93l-3.998-1.587a.5.5 0 0 1-.28-.28L9.465.67a.5.5 0 0 0-.93 0L6.948 4.668Z"></path></svg>