<svg xmlns="http://www.w3.org/2000/svg" viewBox="0 0 16 16" height="16px" fill="currentColor" aria-hidden="true" role="img" class="css-147ro9l"><path d="M10 13v.503a.5.5 0 0 1-.5.5v.497a.5.5 0 0 1-.5.5H7a.5.5 0 0 1-.5-.5v-.497a.5.5 0 0 1-.5-.5V13zM8 1q5 0 8 5-2.202 3.67-5.483 4.647l-.009.353a1 1 0 0 1-1 .992H6.553a1.034 1.034 0 0 1-1.046-.884l-.006-.456Q2.208 9.682 0 6q3-5 8-5m0 1a4 4 0 0 0-4 4c0 1.083.469 1.913 1.37 2.7 1.313 1.147.938 1.576 1.074 2.268l.004.032h3.103l.005-.032c.124-.629-.161-1.121.926-2.141l.148-.127C11.56 7.958 12 7.083 12 6a4 4 0 0 0-4-4m0 2a2 2 0 1 1 0 4 2 2 0 0 1 0-4m.75.5a.75.75 0 1 0 0 1.5.75.75 0 0 0 0-1.5"></path></svg>