<svg xmlns="http://www.w3.org/2000/svg" width="24" height="24" fill="none" viewBox="0 0 24 24">
  <path fill="#00873D" fill-rule="evenodd" d="M20.924 20.056a5 5 0 1 1 .748-.663l1.927 2.173-.748.664zM22 16a4 4 0 1 0-8 0 4 4 0 0 0 8 0" clip-rule="evenodd"/>
  <path fill="#404040" fill-rule="evenodd" d="M0 4.5A1.5 1.5 0 0 1 1.5 3h2A1.5 1.5 0 0 1 5 4.5V18H0zM1.5 4a.5.5 0 0 0-.5.5V17h3V4.5a.5.5 0 0 0-.5-.5zm7 3h2A1.5 1.5 0 0 1 12 8.5V18H7V8.5A1.5 1.5 0 0 1 8.5 7M11 8.5a.5.5 0 0 0-.5-.5h-2a.5.5 0 0 0-.5.5V17h3zM14.682 21a6 6 0 0 1-1.154-1H0v1zM18 5.5a.5.5 0 0 0-.5-.5h-2a.5.5 0 0 0-.5.5v5.303a6 6 0 0 0-1 .725V5.5A1.5 1.5 0 0 1 15.5 4h2A1.5 1.5 0 0 1 19 5.5v4.583A6 6 0 0 0 18 10z" clip-rule="evenodd"/>
</svg>
