<svg xmlns="http://www.w3.org/2000/svg" viewBox="0 0 16 16" height="16px" fill="currentColor" aria-hidden="true" role="img" style="height: 16px;"><path d="M10.755 2.51A5.19 5.19 0 0 0 6.307 0h-.615A5.193 5.193 0 0 0 .5 5.193q0 .422.104.825l.9-.699A4.193 4.193 0 0 1 5.692 1h.614a4.2 4.2 0 0 1 3.656 2.138l.792-.626ZM2.873 8.054 3.62 9.25A2.5 2.5 0 0 1 4 10.574V11h4v-.426a2.5 2.5 0 0 1 .38-1.325l1.277-2.043 1.789-1.416c-.075.41-.227.803-.45 1.16L9.228 9.779a1.5 1.5 0 0 0-.228.795V12.5c0 .453-.2.859-.518 1.134l-.308 1.23A1.5 1.5 0 0 1 6.72 16H5.281a1.5 1.5 0 0 1-1.455-1.136l-.308-1.23A1.5 1.5 0 0 1 3 12.5v-1.926a1.5 1.5 0 0 0-.228-.795L2.08 8.67zM7.36 14H4.64l.156.621A.5.5 0 0 0 5.28 15h1.438a.5.5 0 0 0 .485-.379zM8 12.5V12H4v.5a.5.5 0 0 0 .5.5h3a.5.5 0 0 0 .5-.5M14.274 1H12V0h4v4h-1V1.7L7.461 7.669 4.96 5.166.807 8.395l-.614-.79 4.848-3.77L7.54 6.331z"></path></svg>