<svg xmlns="http://www.w3.org/2000/svg" viewBox="0 0 16 16" height="16" fill="currentColor" aria-hidden="true" role="img" alt=""><path d="M11 0c2.8 0 5 2.2 5 5s-2.2 5-5 5c-.6 0-1.2-.1-1.7-.3L9 10H8v2H6v2H4v2H0v-3l6.3-6.3C6.1 6.2 6 5.6 6 5c0-2.8 2.2-5 5-5m0 1C8.752 1 7 2.752 7 5c0 .416.058.812.161 1.14l.067.189.245.612L1 13.414V15h2v-2h2v-2h2V9h1.586l.473-.473.612.245c.361.144.831.228 1.329.228 2.248 0 4-1.752 4-4s-1.752-4-4-4m1 2c.533 0 1 .467 1 1s-.467 1-1 1-1-.467-1-1 .467-1 1-1"></path></svg>