<svg xmlns="http://www.w3.org/2000/svg" width="16" height="16" fill="none" viewBox="0 0 16 16">
  <path fill="#870063" fill-rule="evenodd" d="M8 5a3.5 3.5 0 0 0-3.5 3.502c0 .743.202 1.473.584 2.11L6 12.14v2.36A1.5 1.5 0 0 0 7.5 16h1a1.5 1.5 0 0 0 1.5-1.5v-2.361l.915-1.526a4.1 4.1 0 0 0 .585-2.112A3.5 3.5 0 0 0 8 5M5.5 8.502A2.5 2.5 0 0 1 8 6c1.38 0 2.5 1.12 2.5 2.502 0 .562-.153 1.114-.442 1.596l-.916 1.526a1 1 0 0 0-.142.514V13H7v-.861a1 1 0 0 0-.143-.515l-.915-1.526A3.1 3.1 0 0 1 5.5 8.502M7 14v.5a.5.5 0 0 0 .5.5h1a.5.5 0 0 0 .5-.5V14z" clip-rule="evenodd"/>
  <path fill="#404040" d="M14.302 1.414c.365.286.667.672.696 1.152l.002.047V12.5c0 .52-.32.923-.708 1.212-.392.292-.926.526-1.54.71-.45.135-.96.249-1.514.338a3 3 0 0 0 .012-.26v-.756a11 11 0 0 0 1.214-.28c.559-.168.97-.36 1.231-.554.265-.197.305-.339.305-.41V9.367a6 6 0 0 1-1.257.525l-.192.057q.151-.542.188-1.108c.418-.148.738-.308.956-.467.276-.2.305-.333.305-.373V4.367a6 6 0 0 1-1.257.525c-.397.122-.84.229-1.319.317a4.8 4.8 0 0 0-1.088-.846 12.4 12.4 0 0 0 2.113-.427c.562-.172.98-.368 1.246-.562C13.972 3.173 14 3.04 14 3v-.5h-.04a1 1 0 0 0-.275-.3c-.263-.206-.677-.414-1.234-.598C11.341 1.235 9.771 1 7.995 1s-3.344.235-4.45.602c-.557.184-.969.392-1.231.598a1 1 0 0 0-.274.3H2V3c0 .04.027.172.305.374.267.194.684.39 1.246.562.59.182 1.308.329 2.113.427a4.8 4.8 0 0 0-1.089.846 12 12 0 0 1-1.318-.317A6 6 0 0 1 2 4.366V8c0 .04.027.172.305.374.218.159.538.319.956.467q.035.565.188 1.108l-.192-.057A6 6 0 0 1 2 9.367V12.5c0 .072.04.214.304.41.26.194.67.387 1.227.554.36.109.77.203 1.219.282v.754q0 .132.012.261a12 12 0 0 1-1.52-.339c-.612-.184-1.145-.418-1.536-.71C1.318 13.422 1 13.019 1 12.5v-10q.001-.126.056-.23c.107-.345.354-.63.64-.856.388-.305.92-.559 1.534-.762C4.464.244 6.143 0 7.995 0s3.533.244 4.77.652c.615.203 1.148.456 1.537.762"/>
</svg>
