<svg xmlns="http://www.w3.org/2000/svg" width="1em" height="1em" viewBox="0 0 16 16" fill="currentColor"><path d="M8.196 4v2.282c.32-.3.743-.462 1.181-.455 1.171 0 1.936.992 1.936 2.511 0 1.717-1.013 2.69-2.065 2.69-.437 0-.778-.119-1.052-.43v.311H6.488V4h1.708Zm6.295 1.827c.596 0 1.112.218 1.45.555l-.775 1.053c-.218-.179-.397-.239-.576-.239-.635 0-1.012.477-1.012 1.231 0 .755.417 1.231.953 1.231.317 0 .576-.159.794-.317L16 10.413c-.496.436-1.152.615-1.668.615-1.41 0-2.5-.953-2.5-2.6 0-1.649 1.25-2.601 2.66-2.601ZM4.031 4l1.965 6.909H4.19l-.318-1.37H2.065l-.318 1.37H0L1.965 4H4.03Zm4.84 3.216c-.258 0-.457.1-.675.358V9.4c.173.158.4.243.635.238.397 0 .735-.317.735-1.27 0-.814-.239-1.152-.695-1.152ZM2.978 5.727h-.04l-.175.826c-.06.282-.123.566-.186.833l-.205.833h1.192l-.205-.834-.286-1.257a28.013 28.013 0 0 0-.095-.401Z"></path></svg>