<svg xmlns="http://www.w3.org/2000/svg" width="1em" height="1em" viewBox="0 0 16 16" fill="currentColor"><path d="M4.10633445,15 L5.93710368,15 L6.43248829,10.9723077 L8.65094983,10.9723077 L8.17710368,15 L10.0078729,15 L10.5032575,10.9723077 L13.2289211,10.9723077 L13.2289211,8.94769231 L10.7401806,8.94769231 L11.0201806,6.57846154 L13.6596904,6.57846154 L13.6596904,4.55384615 L11.2786421,4.55384615 L11.7094114,1 L9.9001806,1 L9.44787291,4.55384615 L7.20787291,4.55384615 L7.63864214,1 L5.82941137,1 L5.37710368,4.55384615 L2.93076923,4.55384615 L2.93076923,6.57846154 L5.11864214,6.57846154 L4.81710368,8.94769231 L2.5,8.94769231 L2.5,10.9723077 L4.5801806,10.9723077 L4.10633445,15 Z M6.44386355,9.09924138 L6.76863941,6.35113793 L9.36684631,6.35113793 L9.01708769,9.09924138 L6.44386355,9.09924138 Z"></path></svg>