<svg xmlns="http://www.w3.org/2000/svg" viewBox="0 0 16 16" height="16" fill="currentColor" aria-hidden="true" role="img" alt="" style=""><path d="M8 0c3 0 5.5 2.239 5.5 5 0 1.544-.597 2.492-1.559 3.764l-.74.97a1 1 0 0 0-.202.6V11a1 1 0 0 1-1 1H6v.5a.5.5 0 0 0 .5.5H10v1H6.64l.156.621A.5.5 0 0 0 7.28 15H9v1H7.28a1.5 1.5 0 0 1-1.455-1.136l-.31-1.232a1.5 1.5 0 0 1-.516-1.132v-2.167a1 1 0 0 0-.201-.6l-.74-.969C3.094 7.492 2.498 6.544 2.498 5 2.5 2.239 5 0 8 0m0 1C5.454 1 3.5 2.883 3.5 5c0 1.155.376 1.84 1.212 2.966l.882 1.162c.265.349.405.773.405 1.205V11h4v-.667c0-.432.14-.856.405-1.205l.71-.93C12.07 6.93 12.499 6.231 12.499 5c0-2.117-1.956-4-4.5-4Zm-.5 1a.5.5 0 0 1 0 1c-.338 0-.717.174-1.022.479-.305.304-.479.684-.479 1.021a.5.5 0 0 1-1 0c0-.663.326-1.283.772-1.729C6.216 2.326 6.837 2 7.499 2Z"></path></svg>