<svg xmlns="http://www.w3.org/2000/svg" viewBox="0 0 16 16" height="16px" fill="currentColor" aria-hidden="true" role="img"><path d="M4 6a1 1 0 0 0 1-1V2.89A2.203 2.203 0 0 1 7.527 4.7l.069.415A3.45 3.45 0 0 0 9.21 7.5a3.45 3.45 0 0 0-1.615 2.384l-.07.415A2.203 2.203 0 0 1 5 12.11V11a1 1 0 0 0-1-1H1a1 1 0 0 0-1 1v4a1 1 0 0 0 1 1h3a1 1 0 0 0 1-1v-1.88a3.204 3.204 0 0 0 3.513-2.657l.07-.415A2.45 2.45 0 0 1 11 8v2a1 1 0 0 0 1 1h3a1 1 0 0 0 1-1V5a1 1 0 0 0-1-1h-3a1 1 0 0 0-1 1v2a2.45 2.45 0 0 1-2.418-2.048l-.069-.415A3.204 3.204 0 0 0 5 1.88V1a1 1 0 0 0-1-1H1a1 1 0 0 0-1 1v4a1 1 0 0 0 1 1zm0-1H1V1h3zm11 5h-3V5h3zM4 11v4H1v-4z"></path></svg>