<svg xmlns="http://www.w3.org/2000/svg" xmlns:xlink="http://www.w3.org/1999/xlink" width="16" height="16" fill="none" viewBox="0 0 16 16">
  <defs>
    <g id="prefix__link_16px-a" fill-rule="evenodd" clip-rule="evenodd">
      <path fill="#404040" d="M1.546 14.454a3.187 3.187 0 0 1 0-4.507l2.98-2.98a3.15 3.15 0 0 1 4.458 0l.37.369-.708.707-.37-.37a2.15 2.15 0 0 0-3.042 0l-2.98 2.98a2.187 2.187 0 0 0 3.092 3.094l2.9-2.9.707.707-2.9 2.9a3.187 3.187 0 0 1-4.507 0"/>
      <path fill="#2C88A9" d="M14.454 1.547a3.187 3.187 0 0 1 0 4.507l-2.981 2.98a3.15 3.15 0 0 1-4.457 0l-.37-.37.707-.707.37.37c.84.84 2.203.84 3.043 0l2.98-2.98a2.187 2.187 0 1 0-3.092-3.093l-2.9 2.9-.707-.708 2.9-2.9a3.187 3.187 0 0 1 4.507 0Z"/>
    </g>
  </defs>
  <use xlink:href="#prefix__link_16px-a"/>
</svg>
