<svg xmlns="http://www.w3.org/2000/svg" viewBox="0 0 16 16" height="16px" fill="currentColor" aria-hidden="true" role="img"><path d="m8 0 4.33 2.5v5l-3.464 2H13.5a1 1 0 0 1 1 1v1.563A2.001 2.001 0 0 1 14 16a2.001 2.001 0 0 1-.5-3.937V10.5h-5v1.563A2.001 2.001 0 0 1 8 16a2.001 2.001 0 0 1-.5-3.937V10.5h-5v1.563A2.001 2.001 0 0 1 2 16a2.001 2.001 0 0 1-.5-3.937V10.5a1 1 0 0 1 1-1h4.634l-3.464-2v-5zm0 1.155L4.67 3.077v3.846L8 8.845l3.33-1.922V3.077zM8 13c-.551 0-1 .449-1 1s.449 1 1 1 1-.449 1-1-.449-1-1-1m-6 0c-.551 0-1 .449-1 1s.449 1 1 1 1-.449 1-1-.449-1-1-1m12 0c-.551 0-1 .449-1 1s.449 1 1 1 1-.449 1-1-.449-1-1-1"></path></svg>