<svg xmlns="http://www.w3.org/2000/svg" width="1em" height="1em" viewBox="0 0 16 16" fill="currentColor"><path d="M13,6 C13.2761424,6 13.5,6.22385763 13.5,6.5 L13.5,7.5 C13.5,10.1957875 11.560524,12.4385861 9.00080364,12.9091642 L9,15 L11.5,15 C11.7761424,15 12,15.2238576 12,15.5 C12,15.7761424 11.7761424,16 11.5,16 L4.5,16 C4.22385763,16 4,15.7761424 4,15.5 C4,15.2238576 4.22385763,15 4.5,15 L7,15 L7.00019187,12.9093471 C4.43997888,12.4391676 2.5,10.196137 2.5,7.5 L2.5,6.5 C2.5,6.22385763 2.72385763,6 3,6 C3.27614237,6 3.5,6.22385763 3.5,6.5 L3.5,7.5 C3.5,9.98528137 5.51471863,12 8,12 C10.4852814,12 12.5,9.98528137 12.5,7.5 L12.5,6.5 C12.5,6.22385763 12.7238576,6 13,6 Z M8,0 C9.65685425,0 11,1.34314575 11,3 L11,7.5 C11,9.15685425 9.65685425,10.5 8,10.5 C6.34314575,10.5 5,9.15685425 5,7.5 L5,3 C5,1.34314575 6.34314575,0 8,0 Z M8,1 C6.8954305,1 6,1.8954305 6,3 L6,7.5 C6,8.6045695 6.8954305,9.5 8,9.5 C9.1045695,9.5 10,8.6045695 10,7.5 L10,3 C10,1.8954305 9.1045695,1 8,1 Z"></path></svg>