<svg xmlns="http://www.w3.org/2000/svg" viewBox="0 0 16 16" height="16" fill="currentColor" aria-hidden="true" role="img" alt=""><path d="M14.332 10.906c.176.306.769.271 1.075.094s.633-.672.457-.978l-1.68-2.909a4 4 0 0 0 1.17-1.955A4.057 4.057 0 0 0 12.479.18 4.057 4.057 0 0 0 7.5 3.054a4.057 4.057 0 0 0 2.875 4.979c.821.22 1.597.215 2.282-.028zm-1.357-4.119c-.75.382-1.556.49-2.341.28-.786-.211-1.43-.707-1.872-1.473a2.98 2.98 0 0 1-.295-2.281c.21-.785.706-1.43 1.412-1.888.75-.382 1.556-.49 2.34-.28.786.211 1.43.708 1.873 1.474.397.689.505 1.495.295 2.28-.227.846-.723 1.49-1.412 1.888M6.5 2V1H1a1 1 0 0 0-1 1v9a1 1 0 0 0 1 1h5.5v3H4v1h6v-1H7.5v-3H13v-1H1V2zM6 5H3V4h3zM3 7h3V6H3zm0 2h5V8H3z"></path></svg>