<svg xmlns="http://www.w3.org/2000/svg" viewBox="0 0 16 16" height="16px" fill="currentColor" aria-hidden="true" role="img"><path d="M1.5 14a.5.5 0 0 1-.46-.697l.044-.08.138-.208a8 8 0 0 0 1.337-4.122l.007-.315V7a5 5 0 0 1 3.5-4.771V1.5a1.5 1.5 0 0 1 2.993-.144l.007.144v.729a5 5 0 0 1 3.495 4.554l.005.217v1.578a8 8 0 0 0 1.174 4.171l.17.266.138.208a.5.5 0 0 1-.326.769l-.09.008H9.566a2 2 0 0 1-3.995.15L5.566 14zm7.066 0h-2a1 1 0 0 0 2 0m-1-11a4 4 0 0 0-4 4v1.578A9 9 0 0 1 2.405 13h10.322a9 9 0 0 1-1.161-4.422V7a4 4 0 0 0-4-4m0-2a.5.5 0 0 0-.5.5V2h1v-.5a.5.5 0 0 0-.5-.5"></path></svg>