<svg xmlns="http://www.w3.org/2000/svg" viewBox="0 0 16 16" height="12px" fill="currentColor" aria-hidden="true" role="img" visibility="visible"><path d="M11.264.644a.35.35 0 0 0-.598.233L10.61 2.23a.75.75 0 0 1-.28.554L7.27 5.233l-1.131-.529a2.75 2.75 0 0 0-2.854.32L1.758 6.212a.748.748 0 0 0-.07 1.122l2.959 2.959-4.5 4.5 1.06 1.06 4.5-4.5 2.958 2.959a.75.75 0 0 0 1.123-.07l1.19-1.53a2.75 2.75 0 0 0 .323-2.848l-.522-1.123 2.417-3.02a.75.75 0 0 1 .614-.28l1.447.055a.35.35 0 0 0 .261-.598z"></path></svg>