<svg xmlns="http://www.w3.org/2000/svg" viewBox="0 0 16 16" height="12px" fill="currentColor" aria-hidden="true" role="img" visibility="visible"><path d="M11.28.306a.5.5 0 0 0-.854.333L10.36 2.22a.5.5 0 0 1-.187.37L7.234 4.941l-.99-.463a3 3 0 0 0-3.112.35L1.605 6.014a1 1 0 0 0-.093 1.496l3.135 3.135L.5 14.793l.707.707 4.147-4.147 3.135 3.135a1 1 0 0 0 1.496-.093l1.19-1.53a3 3 0 0 0 .353-3.106l-.457-.982 2.32-2.9a.5.5 0 0 1 .41-.187l1.702.065a.5.5 0 0 0 .372-.853zm.08 1.956.018-.443 2.888 2.888-.427-.016a1.5 1.5 0 0 0-1.229.562L9.903 8.636l.718 1.544a2 2 0 0 1-.235 2.071l-1.19 1.53-6.977-6.977 1.527-1.187a2 2 0 0 1 2.075-.233l1.553.726 3.424-2.74a1.5 1.5 0 0 0 .561-1.108Z"></path></svg>