<svg xmlns="http://www.w3.org/2000/svg" viewBox="0 0 16 16" height="16px" fill="currentColor" aria-hidden="true" role="img"><path d="M8.793 7.5 6.646 5.354l.708-.708L10.707 8l-3.353 3.354-.708-.708L8.793 8.5H0v-1zM9.822.376 9.797.297A.48.48 0 0 0 9.355 0h-2.71l-.082.007a.48.48 0 0 0-.385.37l-.267 1.23-.325.115a7 7 0 0 0-.63.28l-1.058-.68-.085-.044a.48.48 0 0 0-.512.107L1.385 3.301l-.06.073a.48.48 0 0 0-.004.524l.68 1.059-.02.043h1.082a.48.48 0 0 0-.073-.303l-.62-.966L3.73 2.37l.966.62.077.04a.48.48 0 0 0 .413-.025c.4-.226.828-.404 1.27-.527a.47.47 0 0 0 .336-.356L7.037 1h1.926l.244 1.12.026.083c.056.133.17.235.31.274.442.123.87.3 1.27.527a.48.48 0 0 0 .49-.014l.966-.62 1.361 1.36-.62.966-.04.077a.48.48 0 0 0 .025.413c.226.4.403.828.527 1.27.047.17.184.299.356.336L15 7.037v1.926l-1.12.244-.084.026a.48.48 0 0 0-.273.31c-.123.442-.3.87-.527 1.27a.48.48 0 0 0 .014.49l.62.966-1.361 1.362-.966-.62-.077-.04a.48.48 0 0 0-.413.025c-.4.226-.828.403-1.27.527a.48.48 0 0 0-.336.357L8.963 15H7.037l-.244-1.12-.026-.084a.48.48 0 0 0-.31-.273 5.7 5.7 0 0 1-1.27-.527.48.48 0 0 0-.49.014l-.966.62-1.361-1.36.62-.966.04-.077a.5.5 0 0 0 .034-.226H1.98l.022.043-.68 1.06-.044.084a.48.48 0 0 0 .107.512l1.916 1.916.073.06a.48.48 0 0 0 .524.004l1.059-.681.31.148q.316.14.644.248l.267 1.23.025.079a.48.48 0 0 0 .442.297h2.71l.082-.007a.48.48 0 0 0 .385-.37l.267-1.23.325-.115a7 7 0 0 0 .63-.28l1.058.68.085.044c.174.068.376.03.512-.107l1.916-1.916.06-.073a.48.48 0 0 0 .004-.524l-.681-1.059.148-.31a7 7 0 0 0 .248-.644l1.23-.267.079-.025A.48.48 0 0 0 16 9.355v-2.71l-.007-.082a.48.48 0 0 0-.37-.385l-1.23-.267-.115-.325a7 7 0 0 0-.28-.63l.68-1.058.044-.085a.48.48 0 0 0-.107-.512l-1.916-1.916-.073-.06a.48.48 0 0 0-.524-.004l-1.059.68-.31-.147a7 7 0 0 0-.644-.248z"></path></svg>