<svg xmlns="http://www.w3.org/2000/svg" viewBox="0 0 16 16" height="16" fill="currentColor" aria-hidden="true" role="img" alt=""><path d="M2 0a2 2 0 0 1 1.995 1.85L4 2v1h12v13H2a2 2 0 0 1-1.995-1.85L0 14V2a2 2 0 0 1 2-2m1 13H1v1a1 1 0 0 0 1 1h1zm12-9H4v11h11zm-2.75 1.25a1.75 1.75 0 1 1-1.353 2.86L8.49 9.314a1.8 1.8 0 0 1-.031.565l2.395 1.065a1.75 1.75 0 1 1-.35.938l-2.535-1.126a1.75 1.75 0 1 1 .134-2.366l2.407-1.204a1.75 1.75 0 0 1 1.74-1.936m0 6a.75.75 0 1 0 0 1.5.75.75 0 0 0 0-1.5M2 1a1 1 0 0 0-1 1v10h2V2a1 1 0 0 0-1-1m4.75 7.75a.75.75 0 1 0 0 1.5.75.75 0 0 0 0-1.5m5.5-2.5a.75.75 0 1 0 0 1.5.75.75 0 0 0 0-1.5"></path></svg>