<svg xmlns="http://www.w3.org/2000/svg" width="16" height="15.483" fill="none"><g clip-path="url(#qlik-logo_svg__a)" transform="matrix(.51613 0 0 .51613 -.516 -.516)"><path fill="#54565a" d="M16 27.917c-6.583 0-11.92-5.336-11.92-11.919 0-2.796.966-5.366 2.578-7.399L4.479 6.395A14.94 14.94 0 0 0 1 15.998c0 8.284 6.716 15 15 15 3.59 0 6.885-1.262 9.467-3.366l-2.18-2.205A11.86 11.86 0 0 1 16 27.917"></path><path fill="#009845" d="m27.538 25.548.169-.172A14.93 14.93 0 0 0 31 16c0-8.284-6.716-15-15-15-3.571 0-6.85 1.249-9.425 3.332-.743.6-1.427 1.27-2.043 2l-.053.064 2.179 2.205.055-.072a12 12 0 0 1 2.04-1.992A11.86 11.86 0 0 1 16 4.081c6.583 0 11.919 5.336 11.919 11.919 0 2.778-.951 5.333-2.544 7.359-.578.734-1.239 1.4-1.97 1.981l-.118.09 2.18 2.204 2.565 2.596h4.132z"></path></g><defs><clipPath id="qlik-logo_svg__a"><path fill="#fff" d="M0 0h32v32H0z"></path></clipPath></defs></svg>