<svg xmlns="http://www.w3.org/2000/svg" viewBox="0 0 16 16" height="16px" fill="currentColor" aria-hidden="true" role="img"><path d="M16 8A8 8 0 1 1 0 8a8 8 0 0 1 16 0m-1 0A7 7 0 1 0 1 8a7 7 0 0 0 14 0m-7.718.208V10.5h1.344V9s.863-.126 1.358-.378q.756-.392 1.134-1.05.378-.659.378-1.442v-.168q0-.798-.392-1.456a2.73 2.73 0 0 0-1.092-1.064q-.7-.405-1.68-.406-1.105 0-1.848.448a2.97 2.97 0 0 0-1.12 1.162c-.243.476-.364.85-.364 1.4h1.288c0-.383.084-.579.252-.868q.252-.448.7-.7.462-.266 1.092-.266.546 0 .966.224.434.21.672.63.238.405.238.98 0 .77-.49 1.302c-.394.44-1.161.593-1.824.725a9 9 0 0 0-.612.135m1.53 3.98a.812.812 0 1 1-1.624 0 .812.812 0 0 1 1.624 0"></path></svg>