<svg xmlns="http://www.w3.org/2000/svg" xmlns:xlink="http://www.w3.org/1999/xlink" width="16" height="16" viewBox="0 0 16 16">
  <defs>
    <g id="prefix__rest_16px-a" fill-rule="evenodd" clip-rule="evenodd">
      <path fill="#2C88A9" d="M1.179 10V5.436h1.645q.483 0 .882.133.399.126.637.434.237.308.238.854 0 .504-.224.833a1.33 1.33 0 0 1-.588.483L4.805 10H3.65l-.875-1.645h-.567V10zm1.029-2.464h.532q.406 0 .616-.168.217-.175.217-.511t-.217-.469q-.21-.133-.616-.133h-.532zM5.122 10V5.436h2.856v.868H6.15v.917h1.554v.861H6.15v1.05h1.897V10zm4.878.084q-.449 0-.896-.168a2.4 2.4 0 0 1-.791-.49l.588-.707a2.2 2.2 0 0 0 .546.343q.3.133.58.133.323 0 .477-.119a.38.38 0 0 0 .16-.322q0-.218-.181-.315a4 4 0 0 0-.476-.231l-.595-.252a2 2 0 0 1-.441-.259 1.3 1.3 0 0 1-.343-.413 1.2 1.2 0 0 1-.133-.574q0-.377.203-.686.21-.308.574-.49.371-.182.847-.182a2.13 2.13 0 0 1 1.47.602l-.525.651a1.9 1.9 0 0 0-.448-.266 1.2 1.2 0 0 0-.497-.098.73.73 0 0 0-.427.112.34.34 0 0 0-.154.301q0 .21.196.315.202.105.497.224l.588.238q.412.168.658.462.245.294.245.777 0 .378-.203.7a1.46 1.46 0 0 1-.588.518q-.385.195-.931.196M12.899 10V6.304h-1.253v-.868h3.542v.868h-1.253V10z"/>
      <path fill="#404040" d="M15 1.5a1 1 0 1 1-2 0 1 1 0 0 1 2 0m-12 12a1 1 0 1 1-2 0 1 1 0 0 1 2 0"/>
      <path fill="#404040" d="M14.5 2H1V1h13.5zm.5 12H1.5v-1H15z"/>
    </g>
  </defs>
  <use xlink:href="#prefix__rest_16px-a"/>
</svg>
