<svg xmlns="http://www.w3.org/2000/svg" viewBox="0 0 16 16" height="16px" fill="currentColor" aria-hidden="true" role="img"><path d="m13 6-2.296 2.296-2-2L13 2l.444-.43.162.238A3.54 3.54 0 0 1 13 6m-5 5L6.995 9.995l-.937.937a3 3 0 1 1-.99-.99l.937-.937L3 6a3.54 3.54 0 0 1-.606-4.191l.148-.218L3 2l4.716 4.716-.003.003 2.284 2.284-.002.002.937.937a3 3 0 1 1-.99.99l-.937-.937zm-3 1.5a1.5 1.5 0 1 0-3 0 1.5 1.5 0 0 0 3 0m9 0a1.5 1.5 0 1 0-3 0 1.5 1.5 0 0 0 3 0m-6-4a.5.5 0 1 0 0 1 .5.5 0 0 0 0-1"></path></svg>