<svg xmlns="http://www.w3.org/2000/svg" viewBox="0 0 16 16" height="16px" fill="currentColor" aria-hidden="true" role="img"><path d="M6 15.5a.5.5 0 0 1 .5-.5h3a.5.5 0 1 1 0 1h-3a.5.5 0 0 1-.5-.5m-5-2v1a.5.5 0 0 0 .5.5h1a.5.5 0 1 1 0 1H1a1 1 0 0 1-1-1v-1.5a.5.5 0 1 1 1 0m0-7v3a.5.5 0 0 1-1 0v-3a.5.5 0 0 1 1 0m-1-4V1a1 1 0 0 1 1-1h1.5a.5.5 0 0 1 0 1h-1a.5.5 0 0 0-.5.5v1a.5.5 0 0 1-1 0m6-2a.5.5 0 0 1 .5-.5h3a.5.5 0 0 1 0 1h-3A.5.5 0 0 1 6 .5m9 2v-1a.5.5 0 0 0-.5-.5h-1a.5.5 0 1 1 0-1H15a1 1 0 0 1 1 1v1.5a.5.5 0 1 1-1 0M9.166 6.166c1.555-1.555 4.113-1.555 5.668 0s1.555 4.113 0 5.668-4.113 1.555-5.668 0-1.555-4.063 0-5.668m4.966 1.555a.56.56 0 0 0 0-.803.56.56 0 0 0-.803 0l-1.304 1.305-1.304-1.305a.522.522 0 0 0-.803 0 .524.524 0 0 0 0 .803l1.305 1.304-1.305 1.304c-.25.2-.25.552 0 .803.251.25.602.25.803 0l1.304-1.304 1.304 1.304c.2.25.552.25.803 0 .2-.201.25-.602 0-.803l-1.304-1.304z"></path></svg>