<svg xmlns="http://www.w3.org/2000/svg" viewBox="0 0 16 16" height="16px" fill="currentColor" aria-hidden="true" role="img"><path d="M1.5 1a.5.5 0 0 0-.5.5V3H0V1.5A1.5 1.5 0 0 1 1.5 0H3v1zm13.5.5a.5.5 0 0 0-.5-.5H13V0h1.5A1.5 1.5 0 0 1 16 1.5V3h-1zM14.5 15a.5.5 0 0 0 .5-.5V13h1v1.5a1.5 1.5 0 0 1-1.5 1.5H13v-1zM1 14.5a.5.5 0 0 0 .5.5H3v1H1.5A1.5 1.5 0 0 1 0 14.5V13h1zM6 0h4v1H6zM1 6H0v4h1zm9 9H6v1h4zm-2-3c0-1.645 1.33-2.98 2.975-2.986l3.031-.01-1.663 1.699.714.7 2.846-2.907-2.85-2.85-.707.708 1.651 1.65-3.025.01A3.986 3.986 0 0 0 7 12z"></path></svg>