<svg xmlns="http://www.w3.org/2000/svg" viewBox="0 0 16 16" height="16px" fill="currentColor" aria-hidden="true" role="img"><path d="M7 1v4h2V1zM.4 0h3.2c.22 0 .4.18.4.4v5.2a.4.4 0 0 1-.4.4H.4a.4.4 0 0 1-.4-.4V.4C0 .18.18 0 .4 0M1 1v4h2V1zm5.4-1h3.2c.22 0 .4.18.4.4v5.2a.4.4 0 0 1-.4.4H6.4a.4.4 0 0 1-.4-.4V.4c0-.22.18-.4.4-.4m-6 10h3.2c.22 0 .4.18.4.4v5.2a.4.4 0 0 1-.4.4H.4a.4.4 0 0 1-.4-.4v-5.2c0-.22.18-.4.4-.4m6 0h3.2c.22 0 .4.18.4.4v5.2a.4.4 0 0 1-.4.4H6.4a.4.4 0 0 1-.4-.4v-5.2c0-.22.18-.4.4-.4m6 0h3.2c.22 0 .4.18.4.4v5.2a.4.4 0 0 1-.4.4h-3.2a.4.4 0 0 1-.4-.4v-5.2c0-.22.18-.4.4-.4M0 8h16v1H0z"></path></svg>