<svg xmlns="http://www.w3.org/2000/svg" viewBox="0 0 16 16" height="16px" fill="currentColor" aria-hidden="true" role="img"><path d="M1 1.5a.5.5 0 0 1 .5-.5H3V0H1.5A1.5 1.5 0 0 0 0 1.5V3h1zM14.5 1a.5.5 0 0 1 .5.5V3h1V1.5A1.5 1.5 0 0 0 14.5 0H13v1zm0 14a.5.5 0 0 0 .5-.5V13h1v1.5a1.5 1.5 0 0 1-1.5 1.5H13v-1zm-13 0a.5.5 0 0 1-.5-.5V13H0v1.5A1.5 1.5 0 0 0 1.5 16H3v-1zM6 0h4v1H6zm9 6h1v4h-1zm-5 10v-1H6v1zM5.025 9.014A2.986 2.986 0 0 1 8 12h1a3.986 3.986 0 0 0-3.972-3.986l-3.025-.01 1.65-1.65-.707-.708L.093 8.5l2.853 2.854.708-.708L2.01 9.004l3.014.01Z"></path></svg>