<svg xmlns="http://www.w3.org/2000/svg" viewBox="0 0 16 16" height="16" fill="currentColor" aria-hidden="true" role="img" alt=""><path d="M9.355 0c.196 0 .37.12.442.297l.025.08.267 1.23q.328.106.643.247l.312.148 1.058-.68a.48.48 0 0 1 .524.003l.073.06 1.916 1.916a.48.48 0 0 1 .107.512l-.043.085-.681 1.059q.157.308.28.63l.116.324 1.23.267c.19.041.336.194.369.385l.007.082v2.71c0 .196-.12.37-.297.442l-.08.025-1.23.267a7 7 0 0 1-.247.643l-.148.312.68 1.058c.105.163.1.368-.003.524l-.06.073-1.916 1.916a.48.48 0 0 1-.512.107l-.085-.043-1.059-.681a7 7 0 0 1-.63.28l-.324.116-.267 1.23a.48.48 0 0 1-.385.369L9.355 16h-2.71a.48.48 0 0 1-.442-.297l-.025-.08-.267-1.23a7 7 0 0 1-.643-.247l-.311-.148-1.06.68a.48.48 0 0 1-.523-.003l-.073-.06-1.916-1.916a.48.48 0 0 1-.107-.512l.043-.085.68-1.059a7 7 0 0 1-.28-.63l-.115-.324-1.23-.267a.48.48 0 0 1-.369-.385L0 9.355v-2.71c0-.196.12-.37.297-.442l.08-.025 1.23-.267q.106-.328.247-.643l.148-.311-.68-1.06a.48.48 0 0 1 .003-.523l.06-.073 1.916-1.916a.48.48 0 0 1 .512-.107l.085.043 1.059.68q.308-.155.63-.28l.324-.115.267-1.23a.48.48 0 0 1 .385-.369L6.645 0zm-.392 1H7.037l-.244 1.12a.48.48 0 0 1-.336.357c-.442.123-.87.3-1.27.527a.48.48 0 0 1-.413.026l-.077-.04-.966-.62L2.37 3.73l.62.966a.47.47 0 0 1 .015.49 5.7 5.7 0 0 0-.527 1.27.48.48 0 0 1-.274.31l-.082.026L1 7.037v1.926l1.12.244c.173.037.31.167.357.336.124.442.3.87.527 1.27.072.128.08.28.026.413l-.04.077-.62.966 1.36 1.361.966-.62a.48.48 0 0 1 .49-.015c.4.226.828.403 1.27.527.14.04.254.141.31.274l.026.082L7.037 15h1.926l.244-1.12a.48.48 0 0 1 .336-.357c.442-.123.87-.3 1.27-.527a.48.48 0 0 1 .413-.026l.077.04.966.62 1.362-1.361-.62-.966a.48.48 0 0 1-.015-.49c.226-.4.403-.828.527-1.27.04-.14.14-.254.274-.31l.082-.026L15 8.963V7.037l-1.12-.244a.48.48 0 0 1-.357-.336c-.124-.443-.3-.87-.527-1.27a.48.48 0 0 1-.026-.413l.04-.077.62-.966-1.36-1.361-.966.62a.48.48 0 0 1-.49.015 5.7 5.7 0 0 0-1.27-.527.48.48 0 0 1-.31-.274l-.026-.082zm-.026 3.539a3.536 3.536 0 1 1-1.793 6.84 3.536 3.536 0 0 1 1.793-6.84m-2.73 1.668a2.536 2.536 0 1 0 3.643 3.53 2.536 2.536 0 0 0-3.643-3.53"></path></svg>