<svg xmlns="http://www.w3.org/2000/svg" viewBox="0 0 16 16" height="16px" fill="currentColor" aria-hidden="true" role="img"><path d="M13.88 12.993A7.24 7.24 0 0 1 8 16a7.24 7.24 0 0 1-5.88-3.007c.36-.044.662-.28.8-.601A6.24 6.24 0 0 0 8 15a6.24 6.24 0 0 0 5.08-2.608c.138.322.44.557.8.6m.887-1.634a1 1 0 0 0-.94-.344 6.251 6.251 0 0 0-4.995-8.46 1 1 0 0 0 .063-1 7.25 7.25 0 0 1 5.872 9.804m-13.534 0a7.251 7.251 0 0 1 5.871-9.804 1 1 0 0 0 .064 1 6.25 6.25 0 0 0-4.995 8.46 1 1 0 0 0-.94.344M6 1.999C6 .898 6.897 0 8 0s2 .897 2 2-.897 2-2 2-2-.897-2-2M9 2c0-.551-.449-1-1-1s-1 .449-1 1 .449 1 1 1 1-.449 1-1m3 10c0-1.103.897-2 2-2s2 .897 2 2-.897 2-2 2-2-.897-2-2m3 0c0-.551-.449-1-1-1s-1 .449-1 1 .449 1 1 1 1-.449 1-1M0 12c0-1.103.897-2 2-2s2 .897 2 2-.897 2-2 2-2-.897-2-2m3 0c0-.551-.449-1-1-1s-1 .449-1 1 .449 1 1 1 1-.449 1-1"></path></svg>