<svg xmlns="http://www.w3.org/2000/svg" viewBox="0 0 16 16" height="16px" fill="currentColor" aria-hidden="true" role="img"><path d="M6 15.5a.5.5 0 0 1 .5-.5h3a.5.5 0 1 1 0 1h-3a.5.5 0 0 1-.5-.5m-5-2v1a.5.5 0 0 0 .5.5h1a.5.5 0 1 1 0 1H1a1 1 0 0 1-1-1v-1.5a.5.5 0 1 1 1 0m0-7v3a.5.5 0 0 1-1 0v-3a.5.5 0 0 1 1 0m-1-4V1a1 1 0 0 1 1-1h1.5a.5.5 0 0 1 0 1h-1a.5.5 0 0 0-.5.5v1a.5.5 0 0 1-1 0m6-2a.5.5 0 0 1 .5-.5h3a.5.5 0 0 1 0 1h-3A.5.5 0 0 1 6 .5m9 2v-1a.5.5 0 0 0-.5-.5h-1a.5.5 0 1 1 0-1H15a1 1 0 0 1 1 1v1.5a.5.5 0 1 1-1 0m.882 11.131c.25.25.062.813-.188 1.063s-.813.438-1.063.188l-1.689-1.689-.062-.375-.438-.438c-.625.5-1.439.75-2.377.75A4.057 4.057 0 0 1 6 9.066 4.057 4.057 0 0 1 10.065 5a4.057 4.057 0 0 1 4.066 4.065c0 .876-.25 1.689-.75 2.377l.437.438.375.062zm-5.817-1.501c.813 0 1.564-.313 2.19-.876.562-.563.875-1.313.875-2.189 0-.813-.313-1.563-.876-2.126C11.63 6.313 10.878 6 10.065 6s-1.563.312-2.189.875c-.563.626-.875 1.376-.875 2.19 0 .812.312 1.563.875 2.126.626.625 1.376.938 2.19.938"></path></svg>