<svg xmlns="http://www.w3.org/2000/svg" viewBox="0 0 16 16" height="16px" fill="currentColor" aria-hidden="true" role="img"><path d="M7 8a.75.75 0 1 0 0-1.5A.75.75 0 0 0 7 8M6 4 5 5H4a1 1 0 0 0-1 1v3a1 1 0 0 0 1 1h6a1 1 0 0 0 1-1V6a1 1 0 0 0-1-1H9L8 4zm-.586 2 1-1h1.172l1 1H10v3H4V6zM2 0a2 2 0 0 0-2 2v10a2 2 0 0 0 2 2h10a2 2 0 0 0 2-2V2a2 2 0 0 0-2-2zm10 1a1 1 0 0 1 1 1v10a1 1 0 0 1-1 1H2a1 1 0 0 1-1-1V2a1 1 0 0 1 1-1zm2 14a1 1 0 0 0 1-1V2.268A2 2 0 0 1 16 4v10a2 2 0 0 1-2 2H4a2 2 0 0 1-1.732-1z"></path></svg>