<svg width="8px" height="14px" viewBox="0 0 8 14" version="1.1" aria-labelledby="SortIcon"><g stroke="none" stroke-width="1" fill="none" fill-rule="evenodd"><g transform="translate(-4.000000, -1.000000)" fill="#404040" fill-rule="nonzero"><g transform="translate(4.324187, 1.300372)"><path d="M4.06624695,13.2115849 L7.28588573,9.1870364 C7.3893886,9.05765782 7.36841219,8.8688701 7.23903361,8.76536724 C7.18583969,8.72281211 7.11974654,8.69962788 7.05162509,8.69962788 L0.3,8.69962788 C0.134314575,8.69962788 -1.25807407e-14,8.83394246 -1.26010313e-14,8.99962788 C-1.26093738e-14,9.06774933 0.0231842256,9.13384248 0.0657393572,9.1870364 L3.28537814,13.2115849 C3.45788292,13.4272158 3.7725291,13.4621765 3.98816007,13.2896718 C4.01699242,13.2666059 4.04318107,13.2404172 4.06624695,13.2115849 Z" opacity="0.300390625"></path><path d="M4.06624695,0.187670888 L7.28588573,4.21221937 C7.3893886,4.34159795 7.36841219,4.53038566 7.23903361,4.63388852 C7.18583969,4.67644366 7.11974654,4.69962788 7.05162509,4.69962788 L0.3,4.69962788 C0.134314575,4.69962788 2.1918781e-12,4.56531331 2.19185781e-12,4.39962788 C2.19184946e-12,4.33150643 0.0231842256,4.26541328 0.0657393572,4.21221937 L3.28537814,0.187670888 C3.45788292,-0.0279600799 3.7725291,-0.0629207673 3.98816007,0.109584007 C4.01699242,0.132649888 4.04318107,0.158838536 4.06624695,0.187670888 Z"></path></g></g></g></svg>