<svg width="16" height="16" viewBox="0 0 16 16" fill="none" xmlns="http://www.w3.org/2000/svg"><g clip-path="url(#clip0_838_506)"><path fill-rule="evenodd" clip-rule="evenodd" d="M8 0C3.6 0 0 3.6 0 8C0 12.4 3.6 16 8 16C12.4 16 16 12.4 16 8C16 3.6 12.4 0 8 0ZM8 1C4.15 1 1 4.15 1 8C1 11.85 4.15 15 8 15C11.85 15 15 11.85 15 8C15 4.15 11.85 1 8 1Z" fill="#00873D"></path><path d="M4.14289 7.72219L7.00003 10.5L12.1429 5.49997" stroke="#00873D"></path></g><defs><clipPath id="clip0_838_506"><rect width="16" height="16" fill="white"></rect></clipPath></defs></svg>