<svg xmlns="http://www.w3.org/2000/svg" viewBox="0 0 16 16" height="16px" fill="currentColor" aria-hidden="true" role="img"><path d="m2.604 7.672-.276.96h2.004l-.276-.96a42 42 0 0 1-.372-1.284L3.348 5.08H3.3q-.156.66-.336 1.32-.168.648-.36 1.272m-2.628 4.176L2.532 4h1.632l2.556 7.848H5.256l-.612-2.124h-2.64l-.612 2.124zm9.23.144q-.768 0-1.26-.48-.48-.48-.48-1.248 0-.948.828-1.464.828-.528 2.64-.72a1.4 1.4 0 0 0-.252-.804q-.228-.348-.828-.348-.432 0-.852.168-.408.168-.804.408l-.504-.924a6 6 0 0 1 1.104-.54 3.8 3.8 0 0 1 1.32-.228q1.104 0 1.644.66.552.648.552 1.884v3.492h-1.14l-.096-.648h-.048a4.3 4.3 0 0 1-.852.564q-.444.228-.972.228m.444-1.08q.36 0 .648-.168.3-.18.636-.48v-1.32q-1.2.156-1.668.468-.468.3-.468.744 0 .396.24.576t.612.18M14 1h1v14h-1zm-1 0h3v1h-3zm0 13h3v1h-3z"></path></svg>