<svg xmlns="http://www.w3.org/2000/svg" viewBox="0 0 16 16" height="16" fill="currentColor" aria-hidden="true" role="img" alt=""><path d="M8.5 0a7.99 7.99 0 0 1 6.34 3.12c1.167 1.514 1.714 3.535 1.268 5.395-.444 1.85-1.776 2.609-3.192 2.897a7 7 0 0 1-1.24.113l-.683.012c-.681.018-1.276.086-1.653.484-.577.511-.487.996-.255 1.464l.106.2.281.49c.259.484.383.957-.253 1.43-.435.324-1 .408-1.54.353A8.001 8.001 0 0 1 8.5 0m0 1a7 7 0 0 0-.315 13.993.54.54 0 0 0 .235-.063c.166-.09.182-.272.088-.437-.084-.146-.175-.29-.254-.438a3 3 0 0 1-.297-.758 1.94 1.94 0 0 1 .05-1.06c.124-.365.35-.674.64-.937.519-.525 1.201-.68 1.765-.733l.294-.02.344-.012.389-.007c.466-.006.862-.011 1.278-.096.855-.174 1.538-.52 1.971-1.128q.091-.126.173-.28c1-1.887.164-4.339-1.317-5.878A6.98 6.98 0 0 0 8.5 1m-4 4a2 2 0 1 1 0 4 2 2 0 0 1 0-4M13 6.5a1 1 0 1 1 0 2 1 1 0 0 1 0-2m-1-3a1 1 0 1 1 0 2 1 1 0 0 1 0-2M8 2a1.5 1.5 0 1 1 0 3 1.5 1.5 0 0 1 0-3"></path></svg>