<?xml version="1.0" encoding="UTF-8" standalone="no"?>
<svg
   xmlns:dc="http://purl.org/dc/elements/1.1/"
   xmlns:cc="http://creativecommons.org/ns#"
   xmlns:rdf="http://www.w3.org/1999/02/22-rdf-syntax-ns#"
   xmlns:svg="http://www.w3.org/2000/svg"
   xmlns="http://www.w3.org/2000/svg"
   xmlns:sodipodi="http://sodipodi.sourceforge.net/DTD/sodipodi-0.dtd"
   xmlns:inkscape="http://www.inkscape.org/namespaces/inkscape"
   viewBox="0 0 16 16"
   height="16px"
   fill="currentColor"
   aria-hidden="true"
   role="img"
   version="1.1"
   id="svg3725"
   sodipodi:docname="tile-space-managed.svg"
   inkscape:version="0.92.4 (5da689c313, 2019-01-14)">
  <metadata
     id="metadata3731">
    <rdf:RDF>
      <cc:Work
         rdf:about="">
        <dc:format>image/svg+xml</dc:format>
        <dc:type
           rdf:resource="http://purl.org/dc/dcmitype/StillImage" />
        <dc:title></dc:title>
      </cc:Work>
    </rdf:RDF>
  </metadata>
  <defs
     id="defs3729" />
  <sodipodi:namedview
     pagecolor="#ffffff"
     bordercolor="#666666"
     borderopacity="1"
     objecttolerance="10"
     gridtolerance="10"
     guidetolerance="10"
     inkscape:pageopacity="0"
     inkscape:pageshadow="2"
     inkscape:window-width="2400"
     inkscape:window-height="1421"
     id="namedview3727"
     showgrid="false"
     inkscape:zoom="26.47231"
     inkscape:cx="14.44748"
     inkscape:cy="0.57732605"
     inkscape:window-x="2391"
     inkscape:window-y="7"
     inkscape:window-maximized="1"
     inkscape:current-layer="svg3725" />
  <rect
     style="fill:#dc423f;fill-opacity:1;stroke-width:1.09848368"
     id="rect4544"
     width="16"
     height="16"
     x="0"
     y="4.4408921e-16"
     ry="2.833149" />
  <path
     inkscape:connector-curvature="0"
     d="m 7.9999999,2 3.2494651,1.875 v 3.75 l -2.5995722,1.5 h 3.4776032 a 0.75045382,0.75 0 0 1 0.750454,0.75 v 1.17225 A 1.5016581,1.50075 0 0 1 12.502723,14 1.5016581,1.50075 0 0 1 12.127496,11.04725 V 9.875 H 8.3752267 v 1.17225 A 1.5016581,1.50075 0 0 1 7.9999999,14 1.5016581,1.50075 0 0 1 7.6247729,11.04725 V 9.875 h -3.752269 v 1.17225 A 1.5016581,1.50075 0 0 1 3.497277,14 1.5016581,1.50075 0 0 1 3.1220501,11.04725 V 9.875 a 0.75045382,0.75 0 0 1 0.7504538,-0.75 h 3.477603 l -2.599572,-1.5 v -3.75 z m 0,0.86625 -2.4990112,1.4415 v 2.8845 l 2.4990112,1.4415 2.4990111,-1.4415 v -2.8845 z m 0,8.88375 c -0.4135001,0 -0.7504538,0.33675 -0.7504538,0.75 0,0.41325 0.3369537,0.75 0.7504538,0.75 0.4134999,0 0.7504538,-0.33675 0.7504538,-0.75 0,-0.41325 -0.3369539,-0.75 -0.7504538,-0.75 m -4.5027229,0 c -0.4135,0 -0.7504538,0.33675 -0.7504538,0.75 0,0.41325 0.3369538,0.75 0.7504538,0.75 0.4135001,0 0.7504538,-0.33675 0.7504538,-0.75 0,-0.41325 -0.3369537,-0.75 -0.7504538,-0.75 m 9.005446,0 c -0.4135,0 -0.750454,0.33675 -0.750454,0.75 0,0.41325 0.336954,0.75 0.750454,0.75 0.4135,0 0.750453,-0.33675 0.750453,-0.75 0,-0.41325 -0.336953,-0.75 -0.750453,-0.75"
     id="path4559"
     style="stroke-width:0.75022691;fill:#ffffff" />
</svg>
