<?xml version="1.0" encoding="UTF-8" standalone="no"?>
<svg
   xmlns:dc="http://purl.org/dc/elements/1.1/"
   xmlns:cc="http://creativecommons.org/ns#"
   xmlns:rdf="http://www.w3.org/1999/02/22-rdf-syntax-ns#"
   xmlns:svg="http://www.w3.org/2000/svg"
   xmlns="http://www.w3.org/2000/svg"
   xmlns:sodipodi="http://sodipodi.sourceforge.net/DTD/sodipodi-0.dtd"
   xmlns:inkscape="http://www.inkscape.org/namespaces/inkscape"
   viewBox="0 0 16 16"
   height="16px"
   fill="currentColor"
   aria-hidden="true"
   role="img"
   version="1.1"
   id="svg3725"
   sodipodi:docname="tile-space-data.svg"
   inkscape:version="0.92.4 (5da689c313, 2019-01-14)">
  <metadata
     id="metadata3731">
    <rdf:RDF>
      <cc:Work
         rdf:about="">
        <dc:format>image/svg+xml</dc:format>
        <dc:type
           rdf:resource="http://purl.org/dc/dcmitype/StillImage" />
        <dc:title></dc:title>
      </cc:Work>
    </rdf:RDF>
  </metadata>
  <defs
     id="defs3729" />
  <sodipodi:namedview
     pagecolor="#ffffff"
     bordercolor="#666666"
     borderopacity="1"
     objecttolerance="10"
     gridtolerance="10"
     guidetolerance="10"
     inkscape:pageopacity="0"
     inkscape:pageshadow="2"
     inkscape:window-width="2400"
     inkscape:window-height="1421"
     id="namedview3727"
     showgrid="false"
     inkscape:zoom="26.47231"
     inkscape:cx="17.469506"
     inkscape:cy="0.57732605"
     inkscape:window-x="2391"
     inkscape:window-y="7"
     inkscape:window-maximized="1"
     inkscape:current-layer="svg3725" />
  <rect
     style="fill:#870064;fill-opacity:1;stroke-width:1.09848368"
     id="rect4544"
     width="16"
     height="16"
     x="0"
     y="4.4408921e-16"
     ry="2.833149" />
  <path
     inkscape:connector-curvature="0"
     d="M 3.1262857,3.76 C 2.8965714,3.928 2.8571429,4.0504 2.8571429,4.112 c 0,0.0616 0.039429,0.184 0.2691428,0.352 C 3.3508571,4.6296 3.704,4.796 4.1805714,4.9432 5.1294286,5.236 6.4734286,5.424 7.9948571,5.424 9.518,5.424 10.864571,5.236 11.815143,4.9432 c 0.477428,-0.1472 0.831428,-0.3136 1.057714,-0.48 0.231429,-0.168 0.27,-0.2904 0.27,-0.3512 0,-0.0608 -0.03943,-0.1824 -0.27,-0.352 C 12.647429,3.5952 12.292571,3.4288 11.815143,3.2816 10.863714,2.988 9.518,2.8 7.9957143,2.8 6.4734286,2.8 5.1294286,2.988 4.1814286,3.2816 3.704,3.4288 3.3508571,3.5952 3.1262857,3.76 M 3.9114286,2.5216 C 4.9691429,2.1952 6.4082857,2 7.9957143,2 9.5831429,2 11.024,2.1952 12.084286,2.5216 c 0.527143,0.1624 0.984,0.3648 1.317428,0.6096 C 13.730857,3.3712 14,3.7 14,4.112 14,4.524 13.730857,4.8528 13.401714,5.0936 13.067429,5.3376 12.611429,5.54 12.084286,5.7024 11.024,6.0296 9.5822857,6.224 7.9957143,6.224 6.4082857,6.224 4.9691429,6.0296 3.9114286,5.7024 3.3851429,5.54 2.9291429,5.3376 2.5965714,5.0928 2.2674286,4.852 2,4.5232 2,4.112 2,3.7008 2.2674286,3.3728 2.5965714,3.1312 2.9291429,2.8872 3.3851429,2.684 3.9114286,2.5216 M 2.4285714,3.6 A 0.42857143,0.4 0 0 1 2.8571429,4 v 8 A 0.42857145,0.40000002 0 1 1 2,12 V 4 A 0.42857143,0.4 0 0 1 2.4285714,3.6 M 13.571429,3.6904 A 0.42857143,0.4 0 0 1 14,4.0904 V 12 a 0.4285715,0.40000006 0 1 1 -0.857143,0 V 4.0904 a 0.42857143,0.4 0 0 1 0.428572,-0.4 M 4.1805714,8.8296 c 0.948,0.292 2.2928572,0.48 3.8142857,0.48 1.5231429,0 2.8697139,-0.188 3.8202859,-0.48 0.478286,-0.1472 0.831428,-0.3136 1.057714,-0.4784 0.231429,-0.168 0.27,-0.2904 0.27,-0.3512 H 14 c 0,0.412 -0.269143,0.74 -0.598286,0.9808 -0.334285,0.244 -0.790285,0.4464 -1.318285,0.608 C 11.024,9.9152 9.5822857,10.1096 7.9948571,10.1096 6.4091429,10.1096 4.9691429,9.9152 3.9114286,9.5896 3.3851429,9.4272 2.9291429,9.2248 2.5965714,8.9808 2.2682857,8.74 2,8.4112 2,8 h 0.8571429 c 0,0.0616 0.039429,0.1832 0.2691428,0.352 C 3.3508571,8.5168 3.704,8.6824 4.1805714,8.8296 m -0.011143,3.9416 C 5.12,13.0384 6.4665714,13.2 7.9957143,13.2 9.524,13.2 10.873143,13.0384 11.826286,12.7712 12.305429,12.6368 12.657714,12.4832 12.881429,12.328 13.108571,12.1704 13.142857,12.0568 13.142857,12 H 14 c 0,0.416 -0.274286,0.7384 -0.606857,0.9696 -0.336,0.2336 -0.793714,0.4208 -1.32,0.568 C 11.015429,13.8336 9.5762857,14 7.9957143,14 6.4142857,14 4.9785714,13.8344 3.9225714,13.5376 3.3971429,13.3904 2.9402857,13.2032 2.6051429,12.9696 2.2725714,12.7376 2,12.4152 2,12 h 0.8571429 c 0,0.0576 0.034286,0.1712 0.2605714,0.328 0.2228571,0.1552 0.5742857,0.3096 1.0517143,0.4432"
     id="path4649"
     style="stroke-width:0.82807869;fill:#ffffff" />
</svg>
