<?xml version="1.0" encoding="UTF-8" standalone="no"?>
<svg
   xmlns:dc="http://purl.org/dc/elements/1.1/"
   xmlns:cc="http://creativecommons.org/ns#"
   xmlns:rdf="http://www.w3.org/1999/02/22-rdf-syntax-ns#"
   xmlns:svg="http://www.w3.org/2000/svg"
   xmlns="http://www.w3.org/2000/svg"
   xmlns:sodipodi="http://sodipodi.sourceforge.net/DTD/sodipodi-0.dtd"
   xmlns:inkscape="http://www.inkscape.org/namespaces/inkscape"
   viewBox="0 0 16 16"
   height="16px"
   fill="currentColor"
   aria-hidden="true"
   role="img"
   version="1.1"
   id="svg3725"
   sodipodi:docname="tile-space-personal.svg"
   inkscape:version="0.92.4 (5da689c313, 2019-01-14)">
  <metadata
     id="metadata3731">
    <rdf:RDF>
      <cc:Work
         rdf:about="">
        <dc:format>image/svg+xml</dc:format>
        <dc:type
           rdf:resource="http://purl.org/dc/dcmitype/StillImage" />
        <dc:title></dc:title>
      </cc:Work>
    </rdf:RDF>
  </metadata>
  <defs
     id="defs3729" />
  <sodipodi:namedview
     pagecolor="#ffffff"
     bordercolor="#666666"
     borderopacity="1"
     objecttolerance="10"
     gridtolerance="10"
     guidetolerance="10"
     inkscape:pageopacity="0"
     inkscape:pageshadow="2"
     inkscape:window-width="2400"
     inkscape:window-height="1421"
     id="namedview3727"
     showgrid="false"
     inkscape:zoom="26.47231"
     inkscape:cx="17.469506"
     inkscape:cy="0.57732605"
     inkscape:window-x="2391"
     inkscape:window-y="7"
     inkscape:window-maximized="1"
     inkscape:current-layer="svg3725" />
  <rect
     style="fill:#cccccc;fill-opacity:1;stroke-width:1.09848368"
     id="rect4544"
     width="16"
     height="16"
     x="0"
     y="4.4408921e-16"
     ry="2.833149" />
  <path
     inkscape:connector-curvature="0"
     d="M 9.4285714,8.7500001 A 3.5714286,3.75 0 0 1 13,12.5 V 14 H 3 V 12.5 A 3.5714286,3.75 0 0 1 6.5714286,8.7500001 Z m 0,0.75 H 6.5714286 A 2.8571429,3 0 0 0 3.7178571,12.35 l -0.00357,0.15 v 0.75 H 12.285714 V 12.5 A 2.8571429,3 0 0 0 9.5714286,9.5037501 Z M 8,2 A 2.857143,3 0 1 1 8,8.0000001 2.857143,3 0 0 1 8,2 M 8,2.75 A 2.1428572,2.2500001 0 1 0 8,7.2500001 2.1428573,2.25 0 0 0 8,2.75"
     id="path4594"
     style="stroke-width:0.73192507" />
</svg>
