<svg xmlns="http://www.w3.org/2000/svg" viewBox="0 0 16 16" height="16" fill="currentColor" aria-hidden="true" role="img" alt=""><path d="M5.5 0A1.5 1.5 0 0 1 7 1.5v3.085a1.5 1.5 0 0 1 1.764.607 1.5 1.5 0 0 1 2.183.913A1.5 1.5 0 0 1 13 7.5v4A4.5 4.5 0 0 1 8.5 16h-2A4.5 4.5 0 0 1 2 11.5V8a2.5 2.5 0 0 1 2-2.45V1.5A1.5 1.5 0 0 1 5.5 0m0 1a.5.5 0 0 0-.5.5v8H4V6.585A1.5 1.5 0 0 0 3 8v3.5A3.5 3.5 0 0 0 6.5 15h2a3.5 3.5 0 0 0 3.5-3.5v-4a.5.5 0 0 0-1 0h-1v-1a.5.5 0 0 0-1 0V7H8V6a.5.5 0 0 0-1 0v1H6V1.5a.5.5 0 0 0-.5-.5"></path></svg>