<svg xmlns="http://www.w3.org/2000/svg" viewBox="0 0 16 16" height="16" fill="currentColor" aria-hidden="true" role="img" alt=""><path d="M8 0a8 8 0 1 1 0 16A8 8 0 0 1 8 0m1.591 11.922-.153.014a16 16 0 0 1-3.03-.015q.176.77.407 1.385c.247.658.517 1.121.766 1.402.167.188.286.255.354.28l.052.012h.026l.052-.013c.069-.024.188-.09.355-.279.248-.28.518-.744.765-1.402.153-.41.29-.874.406-1.384m-8.226-1.686.021.064a7.01 7.01 0 0 0 5.047 4.524c-.453-.74-.826-1.794-1.078-3.047-1.523-.267-2.834-.757-3.779-1.392zm13.27 0-.02.015c-.955.7-2.342 1.24-3.969 1.525-.253 1.254-.626 2.307-1.08 3.049a7.02 7.02 0 0 0 5.07-4.589ZM9.97 6.892l-.212.024a18 18 0 0 1-3.728-.022Q6 7.434 6 8c0 1.035.077 2.012.213 2.893C6.781 10.963 7.38 11 8 11q.931-.001 1.785-.107C9.922 10.013 10 9.036 10 8q0-.566-.03-1.108m-8.516-1.38-.068.19a7 7 0 0 0-.382 2.058L1 8c0 .522.45 1.264 1.79 1.934.662.331 1.472.605 2.389.792A20 20 0 0 1 5 8q0-.637.036-1.248c-1.332-.232-2.487-.616-3.353-1.104l-.229-.135Zm13.09 0-.076.048c-.881.53-2.094.946-3.504 1.192a21.2 21.2 0 0 1-.142 3.972c.916-.186 1.726-.46 2.388-.79 1.266-.633 1.737-1.33 1.786-1.845L15 8c0-.767-.123-1.505-.351-2.195l-.104-.293Zm-6.53-4.51h-.028c-.047.004-.185.041-.406.29-.248.28-.518.744-.765 1.402-.32.856-.57 1.952-.704 3.2a17 17 0 0 0 3.777.002c-.133-1.25-.382-2.347-.703-3.202-.247-.658-.517-1.12-.766-1.402-.22-.249-.358-.286-.405-.29m-1.58.174-.071.017A7.01 7.01 0 0 0 1.88 4.597q.356.239.863.462c.66.289 1.466.528 2.376.693.211-1.926.686-3.55 1.314-4.576Zm3.133 0 .067.113c.594 1.03 1.042 2.607 1.246 4.462.91-.164 1.716-.403 2.376-.692a6 6 0 0 0 .864-.46 7.02 7.02 0 0 0-4.276-3.353z"></path></svg>