<svg xmlns="http://www.w3.org/2000/svg" viewBox="0 0 16 16" height="16" fill="currentColor" aria-hidden="true" role="img" alt=""><path d="M9.591 4.436c-.052.154-.119.304-.192.487l1.417 2.499c2.384-.738 4.183.582 4.828 1.996.779 1.707.246 3.73-1.284 4.783-1.57 1.08-3.557.896-4.949-.493l1.092-.914c1.375.89 2.577.849 3.47-.205.76-.9.744-2.24-.04-3.121-.903-1.016-2.114-1.047-3.577-.072L9.14 7.246q-.301-.537-.596-1.08c-.176-.324-.369-.528-.723-.624l-.14-.03c-.747-.13-1.228-.77-1.257-1.488a1.635 1.635 0 0 1 1.043-1.602 1.63 1.63 0 0 1 1.843.503c.356.45.469.956.281 1.51ZM3.337 8.58c-1.623.828-2.185 1.871-1.73 3.176.399 1.148 1.535 1.777 2.768 1.534 1.26-.249 1.895-1.295 1.817-2.975l2.39-.004 1.194.01c.42.006.753-.032 1.071-.34l.106-.112c.579-.677 1.643-.616 2.266.023a1.626 1.626 0 0 1-.068 2.329 1.624 1.624 0 0 1-2.284-.08c-.125-.133-.224-.292-.347-.457H7.649c-.276 1.132-.87 2.046-1.894 2.627a3.83 3.83 0 0 1-2.568.457C1.506 14.498.131 12.984.01 11.28-.127 9.35 1.2 7.633 2.97 7.248l.367 1.334Zm8.324-3.634-1.339-.364c.18-.87.047-1.65-.54-2.32-.387-.44-.884-.672-1.45-.758-1.133-.171-2.246.557-2.577 1.67-.374 1.263.193 2.294 1.743 3.071l-1.306 2.2q-.322.541-.648 1.079c-.167.276-.25.5-.116.852.369.969-.152 1.912-1.13 2.168-.921.242-1.82-.364-2.002-1.351-.162-.874.516-1.73 1.479-1.867l.129-.012.17-.01 1.465-2.457c-.922-.917-1.47-1.988-1.349-3.315.086-.938.455-1.749 1.13-2.413a3.83 3.83 0 0 1 4.782-.502c1.46.938 2.13 2.765 1.56 4.33Z"></path></svg>